<svg xmlns="http://www.w3.org/2000/svg" width="1024" height="102" viewBox="-1.80248 -1.80248 638.58098 63.68776"><path d="M539.90402 28.38227c.6-2.19947 1.696-3.9344 3.2853-5.20787 1.5933-1.276 3.468-1.91346 5.6333-1.91346 2.112 0 3.928.62133 5.444 1.8604 1.5147 1.24266 2.5827 2.99426 3.1974 5.26093zm22.984 4.45213v-.7776c0-1.91773-.1947-3.62093-.576-5.11053-.3854-1.49107-.976-2.8624-1.7747-4.11093-1.3467-2.01667-3.06-3.58174-5.132-4.70934-2.076-1.12346-4.3173-1.68386-6.7333-1.68386-2.032 0-3.9067.37813-5.62 1.136-1.7174.7588-3.256 1.88333-4.624 3.38333-1.2787 1.38387-2.2494 2.91507-2.9067 4.5948-.6613 1.6848-.988 3.49267-.988 5.42653 0 1.8672.3613 3.69373 1.0853 5.4844.7254 1.79 1.7307 3.3604 3.0107 4.70667 1.364 1.4324 2.8907 2.50533 4.5747 3.22293 1.6786.71613 3.5373 1.0756 5.564 1.0756 3.0173 0 5.6626-.80733 7.9333-2.42613 2.276-1.61294 4.0453-3.9452 5.3093-6.99214h-5.572c-.7973 1.43387-1.8653 2.53907-3.204 3.32454-1.3426.78226-2.832 1.17186-4.4666 1.17186-2.28 0-4.244-.70733-5.9027-2.13546-1.6573-1.426-2.6973-3.2828-3.112-5.58067zm-56.0334-2.0016c0-2.6536.9187-4.89266 2.76-6.72186 1.8387-1.83387 4.0627-2.748 6.6614-2.748 2.5293 0 4.7146.95946 6.5573 2.88653 1.84 1.9208 2.76 4.23067 2.76 6.93387 0 2.52866-.9307 4.74319-2.7893 6.63279-1.8574 1.88907-3.9987 2.8344-6.4294 2.8344-2.6666 0-4.9213-.94373-6.76-2.82133-1.8413-1.8844-2.76-4.2136-2.76-6.9964m23.484 13.91307V8.3724h-4.9466V20.588c-1.3334-1.35-2.7934-2.3588-4.3854-3.02293-1.5893-.66773-3.316-1.00053-5.184-1.00053-2.096 0-3.968.3464-5.6093 1.036-1.6387.6932-3.148 1.7624-4.5293 3.21093-1.2667 1.31667-2.244 2.8416-2.9267 4.5724-.68 1.7296-1.02 3.5624-1.02 5.4984 0 4.14586 1.36 7.59786 4.0947 10.3568 2.732 2.7552 6.16 4.1328 10.292 4.1328 1.764 0 3.424-.3344 4.9813-1.01147 1.5587-.676 2.9707-1.6708 4.2373-2.986v3.37147zm-34.952-6.1396h-4.9973v6.1396h4.9973zm-30.8466-6.34907c0-2.152.079-3.71866.2373-4.70093.1613-.98333.4213-1.81573.784-2.498.6027-1.13067 1.4013-1.99893 2.3973-2.59787 1.0027-.6 2.152-.89893 3.452-.89893 2.1294 0 3.7134.74013 4.744 2.2224 1.0334 1.48533 1.5507 3.74733 1.5507 6.79533v14.16667h4.9467V28.9828c0-3.84946-.9254-6.83853-2.776-8.96773-1.8467-2.13547-4.44-3.1984-7.768-3.1984-1.696 0-3.184.29893-4.4547.89893-1.2787.60054-2.3133 1.48854-3.1133 2.67134V8.3724h-4.9494v36.37347h4.9494zm-15.2854 3.12147c-.7853 1.66666-1.8773 2.95053-3.2733 3.8604-1.4013.90773-2.964 1.362-4.7 1.362-2.5787 0-4.736-.91667-6.4667-2.74854-1.7306-1.83066-2.5986-4.11973-2.5986-6.86973 0-2.71773.8533-4.99893 2.5626-6.84893 1.704-1.84747 3.7827-2.77093 6.2307-2.77093 1.9 0 3.5293.4152 4.896 1.248 1.368.8328 2.4813 2.08906 3.3493 3.7724h5.4174c-1.048-3.14894-2.728-5.59067-5.0427-7.33174-2.3187-1.7412-5.0493-2.60946-8.1947-2.60946-2.016 0-3.904.3896-5.672 1.17346-1.7653.78227-3.3573 1.9328-4.7733 3.44534-1.28 1.38386-2.248 2.91146-2.9067 4.58746-.656 1.6708-.988 3.46454-.988 5.38387 0 1.86307.364 3.69533 1.0894 5.4844.724 1.79013 1.7266 3.3604 3.008 4.71093 1.3493 1.41253 2.856 2.474 4.524 3.18227 1.6613.712 3.52 1.06253 5.5653 1.06253 3.252 0 6.0053-.85573 8.272-2.55733 2.264-1.70987 3.9733-4.22134 5.1187-7.5364zm-28.132 9.3672v-22.9844h3.8974v-4.49693h-3.8974V8.3724h-4.9226v8.89214h-3.8947v4.49693h3.8947v22.9844zm-35.8186-13.91307c0-2.6536.9186-4.89266 2.7586-6.72186 1.84-1.83387 4.0627-2.748 6.6614-2.748 2.5253 0 4.7186.95946 6.5586 2.88653 1.8374 1.9208 2.756 4.23067 2.756 6.93387 0 2.52866-.932 4.74319-2.784 6.63279-1.8586 1.88907-4.0053 2.8344-6.4333 2.8344-2.6667 0-4.9187-.94373-6.7587-2.82133-1.84-1.8844-2.7586-4.2136-2.7586-6.9964m23.4826 13.91307V17.26454h-4.9973V20.588c-1.2987-1.35-2.7413-2.3588-4.32-3.02293-1.584-.66773-3.3187-1.00053-5.2-1.00053-2.0947 0-3.968.3464-5.6093 1.036-1.6347.6932-3.1467 1.7624-4.528 3.21093-1.2694 1.31667-2.2454 2.8416-2.9267 4.5724-.6813 1.7296-1.0213 3.5624-1.0213 5.4984 0 4.14586 1.364 7.59786 4.0946 10.3568 2.732 2.7552 6.1614 4.1328 10.2907 4.1328 1.7653 0 3.4267-.3344 4.984-1.01147 1.556-.676 2.972-1.6708 4.236-2.986v3.37147zm-48.388-18.6136l-5.62 18.6136h-2.7733l-9.5227-27.48133h5.2694l5.6493 18.16719 5.572-18.16719h3.0213l5.5214 18.16719 5.672-18.16719h5.2213l-9.568 27.48133h-2.7733l-5.6694-18.6136" fill="#181716"/><path d="M320.67332 32.2572c0-3.8176.5507-6.55253 1.6613-8.20933 1.1067-1.65773 2.8894-2.4864 5.3587-2.4864 2.2627 0 3.936.70467 5.0173 2.11093 1.084 1.40574 1.624 3.56867 1.624 6.48334v14.59013h4.9734V29.08174c0-3.9484-.9614-6.98014-2.8854-9.09374-1.9253-2.1136-4.6853-3.17133-8.2826-3.17133-1.6 0-3.0187.28587-4.2587.86093-1.2413.574-2.3787 1.47867-3.408 2.70934v-3.124h-4.7493v27.48293h4.9493zm-14.664-3.87493c-.6187-2.26667-1.6827-4.01827-3.196-5.25987-1.5187-1.2412-3.3333-1.86146-5.448-1.86146-2.1653 0-4.0413.63906-5.6333 1.91346-1.5894 1.2724-2.6854 3.0084-3.2854 5.20787zm-17.712 4.45213c.4147 2.2952 1.452 4.1588 3.1107 5.58067 1.656 1.42546 3.624 2.13546 5.908 2.13546 1.6333 0 3.1173-.3896 4.4586-1.17186 1.34-.78547 2.4107-1.8896 3.2107-3.32454h5.568c-1.2653 3.04694-3.0347 5.3792-5.308 6.99214-2.272 1.6188-4.9173 2.42613-7.9293 2.42613-2.032 0-3.8894-.35947-5.572-1.0756-1.6827-.71507-3.2054-1.79053-4.572-3.22293-1.28-1.34627-2.284-2.9176-3.008-4.70667-.7227-1.79067-1.0894-3.6172-1.0894-5.4844 0-1.93386.3307-3.74173.9894-5.42653.6586-1.67973 1.6266-3.212 2.908-4.59373 1.3653-1.50107 2.9066-2.6256 4.624-3.3844 1.7106-.75787 3.5866-1.13707 5.62-1.13707 2.4146 0 4.6573.56147 6.732 1.68493 2.076 1.1256 3.7866 2.69374 5.1306 4.71094.7987 1.24693 1.3907 2.61826 1.7747 4.10933.3813 1.4896.5747 3.1928.5747 5.10947v.77866zm-11.1413 11.91147v-22.986h3.896v-4.49693h-3.896V8.3708h-4.92v8.89214h-3.8974v4.49693h3.8974v22.986zm-16.312-16.3636c-.616-2.26667-1.6827-4.01827-3.1974-5.25987-1.5146-1.2412-3.332-1.86146-5.4426-1.86146-2.1667 0-4.0467.63906-5.6334 1.91346-1.592 1.2724-2.6893 3.0084-3.2906 5.20787zm-17.712 4.45213c.416 2.2952 1.456 4.1588 3.1093 5.58067 1.66 1.42546 3.6307 2.13546 5.9093 2.13546 1.6347 0 3.1187-.3896 4.46-1.17186 1.3414-.78547 2.408-1.8896 3.208-3.32454h5.572c-1.2666 3.04694-3.0333 5.3792-5.308 6.99214-2.2733 1.6188-4.916 2.42613-7.932 2.42613-2.032 0-3.888-.35947-5.5693-1.0756-1.6827-.71507-3.2067-1.79053-4.5747-3.22293-1.2813-1.34627-2.284-2.9176-3.008-4.70667-.7213-1.79067-1.0866-3.6172-1.0866-5.4844 0-1.93386.3306-3.74173.988-5.42653.6586-1.67973 1.6253-3.212 2.9106-4.59373 1.364-1.50107 2.9054-2.6256 4.62-3.3844 1.716-.75787 3.5867-1.13707 5.62-1.13707 2.4147 0 4.6587.56147 6.7334 1.68493 2.072 1.1256 3.784 2.69374 5.1333 4.71094.8 1.24693 1.3893 2.61826 1.7747 4.10933.3813 1.4896.572 3.1928.572 5.10947v.77866zm-28.1014-.5772c0-3.8176.5534-6.55253 1.6614-8.20933 1.108-1.65773 2.892-2.4864 5.3586-2.4864 2.264 0 3.936.70467 5.02 2.11093 1.0827 1.40574 1.6267 3.56867 1.6267 6.48334v14.59013h4.9693V29.08174c0-3.9484-.9613-6.98014-2.8853-9.09374-1.9253-2.1136-4.6867-3.17133-8.2827-3.17133-1.596 0-3.0186.28587-4.2586.86093-1.24.574-2.376 1.47867-3.408 2.70934v-3.124h-4.748v27.48293h4.9466zm-34.17329-1.42546c0 2.78386.91867 5.11306 2.75867 6.99746 1.84266 1.87853 4.09602 2.82133 6.76002 2.82133 2.4293 0 4.576-.94533 6.4306-2.83706 1.86-1.88694 2.7854-4.10147 2.7854-6.63013 0-2.7032-.92-5.01307-2.76-6.93387-1.84-1.92707-4.0267-2.88653-6.5587-2.88653-2.596 0-4.81466.9152-6.65732 2.748-1.84 1.8292-2.75867 4.0708-2.75867 6.7208m18.48669 13.91413V41.3744c-1.268 1.3152-2.6774 2.31147-4.2347 2.986-1.5573.67453-3.22 1.01307-4.984 1.01307-4.13066 0-7.55999-1.3792-10.29332-4.1344-2.73067-2.75627-4.09734-6.2068-4.09734-10.35947 0-1.93066.34267-3.76613 1.02667-5.49733.68267-1.7292 1.65733-3.25307 2.92133-4.56973 1.38134-1.45107 2.896-2.5188 4.532-3.21094 1.64267-.69173 3.51196-1.03813 5.60936-1.03813 1.8666 0 3.5946.33493 5.1826 1.0016 1.5907.66413 3.0547 1.67293 4.3867 3.02187V8.3708h4.948v36.37507zM167.34266 29.4552c0-2.53133.47867-4.3656 1.436-5.50626.95734-1.1432 2.54267-1.79587 4.75867-1.96307v-5.1692c-1.4.0161-2.628.31973-3.684.9088-1.05867.59067-1.99333 1.4964-2.80933 2.7136v-3.17613h-4.64667v27.48293h4.94533zm-32.472 1.5276c0 2.75.86667 5.03907 2.608 6.86973 1.74 1.83187 3.91067 2.74854 6.50534 2.74854 2.552 0 4.68533-.91774 6.40933-2.75787 1.724-1.84373 2.58667-4.1484 2.58667-6.91146 0-2.7812-.86267-5.08174-2.58667-6.8964-1.724-1.81667-3.87333-2.7208-6.45733-2.7208-2.56267 0-4.71734.91666-6.45734 2.75786-1.74133 1.83907-2.608 4.14214-2.608 6.9104m-5.12173.0468c0-1.94786.32867-3.7676.9844-5.45666.6588-1.6912 1.62973-3.21147 2.912-4.56 1.38133-1.4828 2.93867-2.62134 4.67067-3.42334 1.732-.80053 3.532-1.198 5.396-1.198 2 0 3.85066.35787 5.55866 1.07134 1.70534.7188 3.248 1.77506 4.63334 3.17453 1.34933 1.38173 2.38533 2.938 3.10933 4.67293.72533 1.73227 1.088 3.52134 1.088 5.37134 0 1.88546-.33867 3.71359-1.01067 5.49639-.67733 1.78387-1.62133 3.3396-2.83733 4.67187-1.4 1.53387-2.96533 2.69373-4.70933 3.4844-1.73867.78907-3.592 1.18853-5.56 1.18853-2.012 0-3.868-.36306-5.568-1.08853-1.69867-.72667-3.22267-1.79427-4.572-3.2068-1.28307-1.35053-2.28307-2.9208-3.01014-4.71253-.72453-1.78747-1.08493-3.6156-1.08493-5.48547m-8.1192-2.64733c-.61573-2.26667-1.68493-4.01827-3.19747-5.25987-1.514-1.2412-3.33226-1.86146-5.44586-1.86146-2.164 0-4.04374.63906-5.63334 1.91346-1.5916 1.2724-2.68533 3.0084-3.2848 5.20787zm-17.712 4.45213c.41667 2.2952 1.4536 4.1588 3.10987 5.58067 1.65733 1.42546 3.62706 2.13546 5.9084 2.13546 1.63373 0 3.11813-.3896 4.4604-1.17186 1.33906-.78547 2.40666-1.8896 3.20666-3.32454h5.5724c-1.26506 3.04694-3.0348 5.3792-5.30773 6.99214-2.27293 1.6188-4.91773 2.42613-7.93173 2.42613-2.0324 0-3.88814-.35947-5.56934-1.0756-1.68333-.71507-3.2068-1.79053-4.57293-3.22293-1.28227-1.34627-2.2844-2.9176-3.0088-4.70667-.72506-1.79067-1.0876-3.6172-1.0876-5.4844 0-1.93386.32774-3.74173.9876-5.42653.6572-1.67973 1.62653-3.212 2.9088-4.59373 1.36613-1.50107 2.9052-2.6256 4.6224-3.3844 1.71307-.75787 3.58853-1.13707 5.61987-1.13707 2.41506 0 4.65826.56147 6.7328 1.68493 2.07186 1.1256 3.78386 2.69374 5.13386 4.71094.7984 1.24693 1.39 2.61826 1.77134 4.10933.38386 1.4896.57493 3.1928.57493 5.10947v.77866zm-32.8984-2.00266c0 2.78386.9192 5.11306 2.7588 6.99746 1.8432 1.87853 4.09534 2.82133 6.75787 2.82133 2.4312 0 4.57707-.94533 6.43173-2.83706 1.8588-1.88694 2.7864-4.10147 2.7864-6.63013 0-2.7032-.91813-5.01307-2.75826-6.93387-1.8428-1.92707-4.02867-2.88653-6.55947-2.88653-2.59627 0-4.81507.9152-6.65827 2.748-1.8396 1.8292-2.7588 4.0708-2.7588 6.7208m-3.322 16.10938h5.26827c.76773 1.28751 1.7708 2.26407 3.01253 2.93855 1.24014.67708 2.66094 1.01301 4.2588 1.01301 2.7828 0 5.02094-.83697 6.71987-2.50885 1.6984-1.6797 2.5484-3.8985 2.5484-6.65783v-.3516c-1.26507 1.3152-2.67867 2.31147-4.23547 2.986-1.55613.67453-3.21813 1.01307-4.98373 1.01307-4.12867 0-7.55947-1.3792-10.2928-4.1344-2.73013-2.75627-4.0948-6.2068-4.0948-10.35947 0-1.93066.34227-3.76613 1.02453-5.49733.6828-1.7292 1.65734-3.25307 2.9224-4.56973 1.38334-1.45107 2.8948-2.5188 4.5328-3.21094 1.64067-.69173 3.51094-1.03813 5.60827-1.03813 1.86573 0 3.59387.33493 5.1824 1.0016 1.59107.66413 3.05253 1.67293 4.38587 3.02187v-3.324h4.94693V40.2016c0 4.77853-1.24173 8.52077-3.72347 11.23015-2.4812 2.70208-5.89533 4.05729-10.24213 4.05729-3.14587 0-5.83653-.7448-8.06987-2.23699-2.22973-1.49062-3.81973-3.59114-4.7688-6.31093m-28.7036-15.75778c0 2.52866.9276 4.74319 2.78694 6.63013 1.85573 1.89173 4.00053 2.83706 6.43133 2.83706 2.6484 0 4.88907-.93853 6.71973-2.80733 1.83227-1.876 2.748-4.2136 2.748-7.01146 0-2.63547-.924-4.86974-2.77293-6.70987-1.8484-1.84067-4.0636-2.75893-6.6464-2.75893-2.53013 0-4.70827.9548-6.53173 2.86986-1.8208 1.9172-2.73494 4.2328-2.73494 6.95054m.1984 10.19106v3.37147h-4.9952V8.3708h4.94734v12.21614c1.3312-1.34894 2.79213-2.35774 4.38386-3.02187 1.5912-.66667 3.3192-1.0016 5.18227-1.0016 2.10053 0 3.9688.3464 5.60933 1.03813 1.64014.69214 3.15267 1.75987 4.53334 3.21094 1.2824 1.33173 2.26466 2.864 2.94853 4.59786.68173 1.73014 1.02493 3.5568 1.02493 5.4692 0 4.15267-1.36613 7.6032-4.0968 10.35947-2.73333 2.7552-6.17093 4.1344-10.3188 4.1344-1.76306 0-3.424-.33854-4.98386-1.01307-1.55627-.67453-2.96667-1.6708-4.23494-2.986M5.12136 30.83174c0 2.78386.91979 5.11306 2.75989 6.99746 1.84011 1.87853 4.09375 2.82133 6.75675 2.82133 2.43133 0 4.57653-.94533 6.43227-2.83706 1.85946-1.88694 2.786-4.10147 2.786-6.63013 0-2.7032-.91987-5.01307-2.75894-6.93387-1.84213-1.92707-4.028-2.88653-6.5588-2.88653-2.59686 0-4.81717.9152-6.65728 2.748-1.8401 1.8292-2.75989 4.0708-2.75989 6.7208m18.48597 13.91413V41.3744c-1.2652 1.3152-2.6776 2.31147-4.2344 2.986-1.55786.67453-3.21933 1.01307-4.98493 1.01307-4.13019 0-7.55988-1.3792-10.2906-4.1344C1.36615 38.4828 0 35.03227 0 30.8796c0-1.93066.34323-3.76613 1.02448-5.49733.68333-1.7292 1.65677-3.25307 2.9224-4.56973 1.38333-1.45107 2.89531-2.5188 4.53333-3.21094 1.63958-.69173 3.50938-1.03813 5.60779-1.03813 1.88227 0 3.61413.33493 5.19747 1.0016 1.58226.66413 3.02293 1.67293 4.32186 3.02187v-3.324h4.99627v27.48293h-4.99627M610.88662 23.8672c-1.2973-1.19173-2.9186-2.05626-4.6533-2.3808l.3253-5.412c3.0307.43334 5.8427 1.84067 8.1174 4.0052zm-16.4493-3.89533c2.5973-2.5984 6.0613-4.0052 9.848-4.0052l-.324 5.412c-2.2733.10773-4.2187.9724-5.8427 2.48853zm19.156 11.70107h5.4107c-.2174 3.57026-1.8427 6.92293-4.44 9.41146l-3.6774-3.8948c1.5147-1.51573 2.488-3.462 2.7067-5.51666m-1.192-5.96574l3.896-3.78893c1.6227 2.16453 2.5947 4.65413 2.812 7.3588h-5.4107c-.2133-1.2984-.648-2.4896-1.2973-3.56987m13.3093 12.23907l-5.084-1.62387c.6467-1.5156.9734-3.13653 1.08-4.86826h5.4107c-.1067 2.27346-.54 4.54693-1.4067 6.49213m-9.3053 4.87093c1.408-1.19373 2.4867-2.7068 3.2467-4.22133l5.192 1.62133c-1.1894 2.3828-2.8134 4.65627-4.7587 6.4948zm-11.9013-34.96466l-.2187 5.40893c-4.4373 0-8.5467 1.73067-11.6853 4.76147l-3.68-3.8964c4.2186-4.11094 9.7373-6.274 15.584-6.274.1053 0 .1053 0 0 0m12.4426 10.712c-2.7053-2.9224-6.3853-4.76147-10.1706-5.1948l.3213-5.30254c5.304.54054 10.1733 2.9224 13.8547 6.8172 3.68 3.89627 5.84 8.87334 6.1653 14.28427h-5.4107c-.324-3.89573-1.9453-7.68227-4.76-10.60413m13.5254 31.61199c0 3.02866-2.3787 5.40886-5.4094 5.40886h-40.3626c-3.032 0-5.412-2.3802-5.412-5.40886V9.90774c0-3.03067 2.38-5.4104 5.412-5.4104h40.3626c3.0307 0 5.4094 2.37973 5.4094 5.4104zM626.09862 0h-42.4373c-4.888 0-8.8733 3.9828-8.8733 8.8744v42.33599c0 4.89062 3.9853 8.8724 8.8733 8.8724h42.4373c4.892 0 8.8774-3.87083 8.8774-8.76042V8.8744c0-4.8916-3.9854-8.8744-8.8774-8.8744" fill="#f46f3b"/></svg>