<svg xmlns="http://www.w3.org/2000/svg" version="1.0" width="1024" height="287" viewBox="-0.914 -0.914 115.25 32.302"><path d="M16.761 1.2h.293c.799 0 1.365.483 1.365 1.34 0 .933-.635 1.339-1.379 1.339h-.279V1.2zm-1.245 3.733h1.765c1.328 0 2.433-1.048 2.433-2.393 0-1.346-1.099-2.393-2.433-2.393h-1.765v4.786zM23.014 1.2V.147h-2.723v4.786h2.723V3.879h-1.478v-.825h1.402V2h-1.402v-.8h1.478zM26.69.146v2.52c0 .623-.044 1.302-.844 1.302-.8 0-.845-.68-.845-1.302V.146h-1.244V2.84c0 .615.025 1.225.501 1.689.4.392 1.03.533 1.588.533.559 0 1.186-.14 1.586-.533.476-.464.501-1.074.501-1.69V.147H26.69zM30.626 1.2h1.029V.147h-3.302V1.2h1.03v3.734h1.243V1.2zM35.228.413A3.274 3.274 0 0 0 33.731.02c-.959 0-1.651.635-1.651 1.607 0 .927.513 1.13 1.294 1.352.267.076.757.196.757.546 0 .337-.312.483-.604.483-.425 0-.794-.223-1.105-.495l-.532 1.001a2.947 2.947 0 0 0 1.68.549c.484 0 .986-.135 1.36-.453.38-.323.495-.81.495-1.288 0-.774-.514-1.112-1.18-1.308l-.318-.095c-.216-.07-.553-.179-.553-.456 0-.268.305-.401.534-.401.304 0 .596.126.825.316l.495-.964zM39.437.26a2.918 2.918 0 0 0-1.136-.24c-.672 0-1.352.292-1.823.774a2.505 2.505 0 0 0-.703 1.753c0 .71.241 1.333.767 1.809a2.67 2.67 0 0 0 1.797.706c.387 0 .686-.096 1.098-.224V3.347c-.26.31-.666.506-1.072.506-.775 0-1.295-.545-1.295-1.301 0-.742.514-1.326 1.275-1.326.426 0 .839.183 1.092.527V.261zM41.45 1.994V.146h-1.244v4.787h1.244V2.971h1.796v1.962h1.244V.146h-1.244v1.848H41.45zM48.026 1.2V.147h-2.723v4.786h2.723V3.879h-1.479v-.825h1.403V2h-1.403v-.8h1.479zM50.039 1.099h.121c.405 0 .863.076.863.596 0 .521-.458.597-.863.597h-.121V1.1zM51.27 2.97c.68-.12 1.048-.692 1.048-1.352 0-1.023-.718-1.473-1.663-1.473h-1.861v4.788h1.245V3.092h.012l1.175 1.842h1.55L51.27 2.97zM1.576 12.568v3.155c0 .266.013.704-.356.704-.165 0-.361-.216-.501-.407L0 16.776c.287.438.7.707 1.234.707 1.06 0 1.586-.675 1.586-1.684v-3.231H1.576zM6.013 13.614c.743 0 1.353.604 1.353 1.264 0 .825-.61 1.428-1.353 1.428-.742 0-1.352-.603-1.352-1.428 0-.66.61-1.264 1.353-1.264m0-1.206c-1.378 0-2.648 1.016-2.648 2.464 0 1.549 1.111 2.642 2.647 2.642 1.537 0 2.648-1.093 2.648-2.642 0-1.448-1.27-2.464-2.647-2.464M12.146 12.568v2.52c0 .622-.045 1.3-.844 1.3-.8 0-.845-.678-.845-1.3v-2.52H9.213v2.69c0 .617.026 1.226.502 1.69.4.393 1.028.535 1.587.535.558 0 1.187-.142 1.587-.535.476-.464.5-1.073.5-1.69v-2.69h-1.243zM15.422 13.52h.12c.406 0 .863.076.863.597 0 .52-.457.595-.863.595h-.12V13.52zm1.23 1.872c.68-.12 1.048-.692 1.048-1.352 0-1.023-.716-1.473-1.662-1.473h-1.86v4.789h1.244v-1.844h.012l1.175 1.844h1.549l-1.505-1.964zM18.494 17.355h1.244v-2.933h.014l2.279 2.933h1.243v-4.787H22.03v2.925h-.012l-2.28-2.925h-1.244v4.787zM26.684 15.57h-1.035l.514-1.524h.012l.509 1.524zm.336.953.311.832h1.326l-1.802-4.787h-1.359l-1.842 4.787h1.322l.33-.832h1.714zM30.29 12.568h-1.245v4.786h2.736V16.3H30.29v-3.732zM33.432 12.568h-1.245v4.787h1.245v-4.787zM37.367 12.834a3.268 3.268 0 0 0-1.497-.393c-.959 0-1.651.634-1.651 1.606 0 .926.514 1.129 1.294 1.351.268.077.757.197.757.547 0 .336-.312.482-.604.482-.425 0-.792-.222-1.104-.495l-.533 1.003a2.956 2.956 0 0 0 1.682.547c.483 0 .984-.135 1.359-.452.38-.323.495-.813.495-1.289 0-.774-.515-1.111-1.181-1.307l-.318-.095c-.216-.07-.553-.178-.553-.458 0-.266.306-.4.534-.4.305 0 .598.127.825.319l.495-.966zM40.059 13.621h1.029v-1.054h-3.302v1.054h1.03v3.735h1.243v-3.735zM44.262 13.621v-1.054h-2.724v4.788h2.724V16.3h-1.479v-.825h1.402V14.42h-1.402v-.8h1.479zM45.03 17.355h1.244v-2.933h.013l2.28 2.933h1.243v-4.787h-1.244v2.925h-.012l-2.28-2.925H45.03v4.787zM50.553 15.791h1.815v-.952h-1.815v.952zM21.546 24.987h-1.354l2.014 4.79h.965l2.044-4.79h-1.351L22.7 27.895l-1.155-2.908zM28.25 26.041v-1.053h-2.724v4.787h2.724v-1.054H26.77v-.826h1.402v-1.052h-1.402v-.802h1.479zM30.262 25.94h.12c.407 0 .864.076.864.597 0 .52-.457.596-.864.596h-.12v-1.192zm1.232 1.873c.68-.121 1.047-.692 1.047-1.354 0-1.02-.717-1.472-1.662-1.472h-1.86v4.789h1.243v-1.843h.013l1.175 1.843h1.549l-1.505-1.963zM34.579 25.94h.089c.336 0 .723.026.723.463 0 .407-.342.464-.672.464h-.14v-.926zm.672 3.834c.877 0 1.734-.33 1.734-1.333 0-.666-.292-1.129-.977-1.219v-.013c.386-.196.526-.546.526-.977 0-.914-.571-1.245-1.421-1.245h-1.778v4.788h1.916zm-.672-1.98h.127c.407 0 1.022-.058 1.022.52 0 .528-.622.508-.99.508h-.16v-1.029zM40.229 27.99h-1.035l.515-1.523h.011l.509 1.524zm.336.953.312.833h1.327L40.4 24.987h-1.358L37.2 29.776h1.322l.33-.833h1.713zM42.59 29.776h1.245v-2.934h.012l2.28 2.934h1.243v-4.789h-1.243v2.927h-.013l-2.279-2.927H42.59v4.79zM49.428 26.041h.292c.8 0 1.365.483 1.365 1.34 0 .933-.636 1.34-1.379 1.34h-.279v-2.68zm-1.245 3.734h1.766c1.326 0 2.431-1.049 2.431-2.394 0-1.346-1.099-2.393-2.431-2.393h-1.767v4.787z" style="fill:#666;fill-opacity:1;fill-rule:evenodd;stroke:none"/><path d="M111.9 1.012 100.49 28.2c-.122.261-.483 1.038-.566 1.26-.08-.223-.41-.994-.526-1.265L88.062 1.012h10.115v10.15h3.505V1.012H111.9zM112.663 0h-11.993v10.152h-1.48V0H86.542l11.924 28.59c.531 1.234.836 1.875 1.441 1.884.608.009.934-.634 1.506-1.866L113.422 0h-.76zM69.309 1.012c8.114.068 11.866 7.05 11.919 13.51.053 6.697-3.658 13.997-11.932 14.2H58.761V16.796h12.136v-3.576H58.761V1.012H69.31zM57.749 0v14.235h12.139v1.551h-12.14v13.948h11.56c8.57-.21 12.99-7.817 12.93-15.22C82.185 7.575 78.116.075 69.314 0H57.748z" style="fill:#f75f13;fill-opacity:1;fill-rule:nonzero;stroke:none"/><path d="M91.96 1.012v18.61c0 6.77-4.676 9.816-9.319 9.83-4.636.014-9.34-3.037-9.36-8.897v-3.793h7.88v5.454h2.999V1.012h7.8zM92.465 0h-9.316v21.206h-.975v-5.455H72.27v4.807c.021 6.524 5.235 9.922 10.375 9.906 4.989-.015 10.348-3.428 10.326-10.886V0h-.506z" style="fill:#f75f13;fill-opacity:1;fill-rule:nonzero;stroke:none"/></svg>