<?xml version="1.0" encoding="UTF-8" standalone="no"?>
<!-- Generator: Adobe Illustrator 23.0.0, SVG Export Plug-In . SVG Version: 6.00 Build 0)  -->

<svg
   xmlns:dc="http://purl.org/dc/elements/1.1/"
   xmlns:cc="http://creativecommons.org/ns#"
   xmlns:rdf="http://www.w3.org/1999/02/22-rdf-syntax-ns#"
   xmlns:svg="http://www.w3.org/2000/svg"
   xmlns="http://www.w3.org/2000/svg"
   xmlns:sodipodi="http://sodipodi.sourceforge.net/DTD/sodipodi-0.dtd"
   xmlns:inkscape="http://www.inkscape.org/namespaces/inkscape"
   version="1.1"
   id="oP-Logo"
   x="0px"
   y="0px"
   viewBox="0 0 483.52 249.69"
   style="enable-background:new 0 0 483.52 249.69;"
   xml:space="preserve"
   sodipodi:docname="Logo18_A4_svg.svg"
   inkscape:version="0.92.1 r15371"><metadata
     id="metadata57"><rdf:RDF><cc:Work
         rdf:about=""><dc:format>image/svg+xml</dc:format><dc:type
           rdf:resource="http://purl.org/dc/dcmitype/StillImage" /><dc:title></dc:title></cc:Work></rdf:RDF></metadata><defs
     id="defs55" /><sodipodi:namedview
     pagecolor="#ffffff"
     bordercolor="#666666"
     borderopacity="1"
     objecttolerance="10"
     gridtolerance="10"
     guidetolerance="10"
     inkscape:pageopacity="0"
     inkscape:pageshadow="2"
     inkscape:window-width="2880"
     inkscape:window-height="1526"
     id="namedview53"
     showgrid="false"
     inkscape:zoom="2.6733501"
     inkscape:cx="229.72584"
     inkscape:cy="56.844597"
     inkscape:window-x="9"
     inkscape:window-y="-11"
     inkscape:window-maximized="1"
     inkscape:current-layer="oP-Logo" /><style
     type="text/css"
     id="style2">
	.st0{fill:#3B3C3E;}
	.st1{fill:#35B0C9;}
	.st2{fill:#3B3C3E;stroke:#3B3C3E;stroke-width:0.25;stroke-miterlimit:10;}
</style><g
     id="g50"
     transform="matrix(1.9788873,0,0,1.9788873,-222.22691,-123.64181)"
     inkscape:export-filename="C:\Users\jessica\Desktop\oP-Logo\NEU LOGO\Logo18_A4_transparent.png"
     inkscape:export-xdpi="300"
     inkscape:export-ydpi="300"><g
       id="g6"><rect
         x="193.17"
         y="91.699997"
         class="st0"
         width="0.85000002"
         height="62.360001"
         id="rect4"
         style="fill:#3b3c3e" /></g><path
       class="st1"
       d="m 177.74,102.35 c -0.64,-0.39 -1.33,-0.66 -2,-0.87 -0.01,-0.11 -0.02,-0.21 -0.04,-0.29 -0.47,-3.32 -2.73,-5.12 -6.18,-5.45 -5.19,-0.5 -5.42,3.7 -9.13,5.64 -1.4,0.73 -2.69,1.22 -4.52,1.47 -2.83,0.38 -5.96,-0.36 -8.42,-1.57 -4.3,-2.13 -11,-8.14 -15.85,-11.44 -4.85,-3.3 -14.87,2.79 -14.87,2.79 0,0 9.55,4.58 13,8.03 5.72,5.73 6.76,11.25 7.55,13.77 0.79,2.52 1.56,5.33 1.56,5.33 0,0 -2,6.39 -7.37,8.56 -3.39,1.37 -8.76,0.67 -8.76,0.67 0,0 -2.13,6.62 1.13,11.35 2.52,3.66 8.14,6.42 8.14,6.42 0,0 2.49,-4.62 4.11,-6.46 2.23,-2.54 4.76,-3.34 6.62,-3.61 5,-0.72 10.35,1.58 15.53,5.06 6.62,4.45 15.4,15.15 15.4,15.15 0,0 1.79,-16.65 -2.45,-27.93 -2.3,-6.13 -2.45,-9.8 -2.34,-13.69 0.15,-5.38 1.77,-7.07 1.77,-7.07 2.06,-2.05 2.91,-1.24 4.34,-2.84 0.33,-0.36 0.53,-0.82 0.66,-1.31 0.29,-0.03 0.58,-0.06 0.86,-0.06 1.14,-0.01 2.91,0.14 2.91,0.14 0,0 -0.2,-0.91 -1.65,-1.79 z m -15.3,25.88 c -3.75,3.1 -4.36,4.16 -8.28,4.42 -3.92,0.27 -7.99,0.35 -9.88,-1.26 0,0 -2.07,-1.02 -2.26,-1.79 -0.2,-0.76 -0.52,-1.52 0,-2.38 0.52,-0.86 4.53,-5.96 6.42,-7.71 1.89,-1.75 5.73,-4.95 7,-5.42 1.27,-0.46 3.52,-1.09 3.52,-1.09 0,0 1.48,0.44 2.96,1.68 1.48,1.24 5.14,6.46 5.14,6.46 0,0 -0.87,4 -4.62,7.09 z"
       id="path8"
       inkscape:connector-curvature="0"
       style="fill:#35b0c9" /><g
       id="g18"><g
         id="g12"><path
           class="st0"
           d="m 174.7,153.25 -0.69,-0.71 c -0.09,-0.1 -9.34,-9.65 -15.32,-12.77 -0.59,-0.31 -1.16,-0.63 -1.77,-0.98 -2.67,-1.52 -5.44,-3.08 -9.22,-2.97 -4.03,0.14 -7.19,1.59 -9.14,4.2 -1.32,1.77 -3.25,6.19 -3.27,6.23 l -0.16,0.37 -0.37,-0.15 c -0.23,-0.09 -5.55,-2.2 -8.2,-5.45 -3.47,-4.24 -2.05,-10.54 -1.99,-10.8 l 0.08,-0.34 0.35,0.02 c 0.05,0 4.96,0.21 7.87,-1.26 3.48,-1.76 5.21,-2.98 6.69,-5.89 -0.31,-0.88 -1.74,-4.9 -2.55,-6.89 -2.28,-5.62 -4.94,-9.66 -7.91,-12.01 -3.46,-2.73 -12.46,-6.33 -12.56,-6.37 l -0.72,-0.28 0.62,-0.45 c 0.37,-0.27 9.11,-6.55 14.03,-3.77 1.85,1.05 3.94,2.42 6.16,3.87 3.37,2.21 6.85,4.49 9.35,5.48 2.52,1 5.4,1.29 7.69,0.78 1.69,-0.37 2.8,-0.93 3.95,-1.66 1.17,-0.74 1.9,-1.74 2.6,-2.71 1.18,-1.62 2.39,-3.29 5.55,-3.29 0.04,0 0.08,0 0.11,0 l -0.01,0.85 c -2.82,-0.03 -3.82,1.35 -4.98,2.95 -0.75,1.03 -1.53,2.1 -2.83,2.93 -1.45,0.92 -2.67,1.43 -4.21,1.77 -2.44,0.54 -5.5,0.23 -8.17,-0.82 -2.58,-1.02 -6.1,-3.33 -9.5,-5.56 -2.2,-1.44 -4.28,-2.81 -6.11,-3.84 -3.75,-2.11 -10.4,1.9 -12.49,3.28 2.25,0.93 9.02,3.82 12.03,6.19 3.09,2.44 5.84,6.6 8.17,12.35 0.92,2.26 2.61,7.06 2.62,7.1 l 0.06,0.17 -0.08,0.16 c -1.6,3.23 -3.49,4.59 -7.14,6.43 -2.66,1.34 -6.69,1.38 -7.92,1.36 -0.24,1.34 -0.89,6.35 1.88,9.73 2.13,2.6 6.25,4.51 7.5,5.04 0.51,-1.13 2.04,-4.46 3.2,-6.02 2.1,-2.82 5.48,-4.39 9.77,-4.54 4.02,-0.14 7.01,1.57 9.65,3.07 0.6,0.34 1.17,0.67 1.75,0.97 5.19,2.72 12.52,9.89 14.83,12.21 -0.01,-3.6 -0.36,-16.06 -4.34,-24.5 -0.61,-1.29 -1.37,-2.9 -2.26,-4.56 -0.19,0.64 -0.45,1.26 -0.8,1.85 -1.47,2.47 -7.01,10.42 -16.6,9.38 -5.5,-0.6 -7.53,-2.23 -8.28,-3.5 -0.45,-0.77 -0.55,-1.66 -0.26,-2.38 1.57,-3.89 12.65,-15.57 17.72,-14.85 3.01,0.43 5.55,3.32 7.75,6.99 0.06,-1.63 -0.18,-3.46 -0.51,-5.57 -0.75,-4.89 0.99,-6.83 1.21,-7.05 0.97,-1.13 1.68,-1.48 2.31,-1.79 0.53,-0.26 0.96,-0.47 1.47,-1.15 l 0.66,0.52 c -0.63,0.84 -1.21,1.12 -1.77,1.4 -0.59,0.29 -1.2,0.58 -2.06,1.59 l -0.03,0.03 c -0.01,0.01 -1.69,1.7 -0.97,6.32 0.41,2.69 0.7,4.96 0.42,6.96 0.98,1.75 1.89,3.61 2.75,5.44 4.77,10.1 4.42,25.74 4.42,25.9 z m -16.11,-39.78 c -4.51,0 -14.89,10.44 -16.46,14.35 -0.07,0.18 -0.27,0.81 0.21,1.62 0.53,0.9 2.22,2.49 7.65,3.09 9.1,1 14.39,-6.62 15.79,-8.97 0.46,-0.78 0.75,-1.61 0.91,-2.51 -2.07,-3.62 -4.73,-7.13 -7.73,-7.56 -0.12,-0.01 -0.25,-0.02 -0.37,-0.02 z"
           id="path10"
           inkscape:connector-curvature="0"
           style="fill:#3b3c3e" /></g><g
         id="g16"><path
           class="st0"
           d="m 174.7,153.25 -0.69,-0.71 c -0.09,-0.1 -9.34,-9.65 -15.32,-12.77 -0.59,-0.31 -1.16,-0.63 -1.77,-0.98 -2.67,-1.52 -5.44,-3.08 -9.22,-2.97 -4.03,0.14 -7.19,1.59 -9.14,4.2 -1.32,1.77 -3.25,6.19 -3.27,6.23 l -0.16,0.37 -0.37,-0.15 c -0.23,-0.09 -5.55,-2.2 -8.2,-5.45 -3.47,-4.24 -2.05,-10.54 -1.99,-10.8 l 0.08,-0.34 0.35,0.02 c 0.01,0 0.27,0.01 0.71,0.01 1.4,0 4.89,-0.12 7.16,-1.27 3.48,-1.76 5.21,-2.98 6.69,-5.89 -0.31,-0.88 -1.74,-4.9 -2.55,-6.89 -2.28,-5.62 -4.94,-9.66 -7.91,-12.01 -3.46,-2.73 -12.46,-6.33 -12.56,-6.37 l -0.72,-0.28 0.62,-0.45 c 0.25,-0.18 6.22,-4.48 11.07,-4.48 1.13,0 2.13,0.24 2.96,0.71 1.85,1.05 3.94,2.42 6.16,3.87 3.37,2.21 6.85,4.49 9.35,5.48 2.49,0.98 5.4,1.29 7.69,0.78 1.69,-0.37 2.8,-0.93 3.95,-1.66 1.17,-0.74 1.9,-1.74 2.6,-2.71 1.18,-1.62 2.39,-3.29 5.55,-3.29 h 0.12 c 3.51,0.04 5.84,1.79 6.54,4.9 0,0 0,0.01 0,0.01 0.65,0.16 1.24,0.37 1.75,0.62 1.52,0.76 1.85,1.68 1.88,1.78 l 0.18,0.56 h -0.63 c -0.28,0 -1.69,0 -2.62,0.09 -0.15,0.01 -0.31,0.04 -0.48,0.07 -0.11,0.45 -0.29,0.84 -0.53,1.16 -0.63,0.84 -1.21,1.12 -1.77,1.4 -0.59,0.29 -1.2,0.58 -2.06,1.59 l -0.03,0.03 c -0.01,0.01 -1.69,1.7 -0.97,6.32 0.46,2.97 0.67,5.07 0.41,6.95 1.02,1.81 1.93,3.69 2.76,5.46 4.77,10.1 4.42,25.74 4.42,25.9 z m -26.58,-18.29 c 3.79,0 6.66,1.64 9.2,3.08 0.6,0.34 1.17,0.67 1.75,0.97 5.19,2.72 12.52,9.89 14.83,12.21 -0.01,-3.6 -0.36,-16.06 -4.34,-24.5 -0.85,-1.79 -1.77,-3.7 -2.8,-5.53 l -0.07,-0.13 0.02,-0.15 c 0.28,-1.8 0.07,-3.87 -0.39,-6.83 -0.75,-4.89 0.99,-6.82 1.21,-7.05 0.97,-1.13 1.68,-1.48 2.31,-1.79 0.53,-0.26 0.96,-0.47 1.47,-1.15 0.21,-0.28 0.36,-0.64 0.43,-1.08 l 0.05,-0.28 0.28,-0.06 c 0.3,-0.06 0.58,-0.11 0.84,-0.13 0.59,-0.06 1.37,-0.08 1.95,-0.09 -0.22,-0.22 -0.56,-0.48 -1.05,-0.73 -0.52,-0.26 -1.13,-0.47 -1.82,-0.61 l -0.27,-0.06 -0.05,-0.27 c -0.02,-0.09 -0.04,-0.18 -0.05,-0.26 -0.78,-3.46 -3.55,-4.22 -5.74,-4.25 h -0.11 c -2.73,0 -3.73,1.37 -4.88,2.95 -0.75,1.03 -1.53,2.1 -2.83,2.93 -1.45,0.92 -2.67,1.43 -4.21,1.77 -2.44,0.54 -5.53,0.22 -8.17,-0.82 -2.58,-1.02 -6.1,-3.33 -9.5,-5.56 -2.2,-1.44 -4.28,-2.81 -6.11,-3.84 -0.71,-0.4 -1.56,-0.6 -2.55,-0.6 -3.7,0 -8.28,2.78 -9.94,3.88 2.25,0.93 9.02,3.82 12.03,6.19 3.09,2.44 5.84,6.6 8.17,12.35 0.92,2.26 2.61,7.06 2.62,7.1 l 0.06,0.17 -0.08,0.16 c -1.6,3.23 -3.49,4.59 -7.14,6.43 -2.43,1.23 -6.08,1.36 -7.53,1.36 -0.15,0 -0.28,0 -0.39,0 -0.24,1.33 -0.89,6.35 1.88,9.73 2.13,2.6 6.25,4.51 7.5,5.04 0.51,-1.13 2.04,-4.46 3.2,-6.02 2.1,-2.82 5.48,-4.39 9.77,-4.54 0.15,0.01 0.3,0.01 0.45,0.01 z"
           id="path14"
           inkscape:connector-curvature="0"
           style="fill:#3b3c3e" /></g></g><g
       id="g48"><path
         class="st2"
         d="m 214.87,115.36 c -4.23,0 -6.35,2.22 -6.35,6.67 0.02,4.44 2.13,6.65 6.35,6.65 4.23,0 6.35,-2.22 6.35,-6.65 0,-4.45 -2.12,-6.67 -6.35,-6.67 z m 0,11.43 c -2.67,0 -4,-1.6 -4,-4.81 0,-3.14 1.33,-4.71 4,-4.71 2.67,0 4,1.57 4,4.71 0,3.2 -1.34,4.81 -4,4.81 z"
         id="path20"
         inkscape:connector-curvature="0"
         style="fill:#3b3c3e;stroke:#3b3c3e;stroke-width:0.25;stroke-miterlimit:10" /><path
         class="st2"
         d="m 229.74,115.36 c -1.89,0 -3.72,0.18 -5.48,0.55 v 17.61 h 2.35 v -5.46 c 1,0.42 2.03,0.63 3.1,0.63 4.3,0 6.45,-2.33 6.45,-7 0,-4.22 -2.14,-6.33 -6.42,-6.33 z m -0.05,11.3 c -1.13,0 -2.16,-0.23 -3.08,-0.69 v -8.35 c 0.89,-0.2 1.93,-0.3 3.11,-0.3 2.75,0 4.13,1.45 4.13,4.35 0,3.33 -1.39,4.99 -4.16,4.99 z"
         id="path22"
         inkscape:connector-curvature="0"
         style="fill:#3b3c3e;stroke:#3b3c3e;stroke-width:0.25;stroke-miterlimit:10" /><path
         class="st2"
         d="m 244.95,115.36 c -4.26,0 -6.39,2.17 -6.39,6.51 0,4.54 2.25,6.82 6.74,6.82 1.68,0 3.11,-0.13 4.29,-0.38 v -1.9 c -1.18,0.25 -2.35,0.38 -3.53,0.38 -3.44,0 -5.15,-1.36 -5.15,-4.09 h 8.98 c 0.79,-4.89 -0.86,-7.34 -4.94,-7.34 z m -4.04,5.39 c 0.15,-2.34 1.37,-3.5 3.66,-3.5 2.23,0 3.29,1.17 3.17,3.5 z"
         id="path24"
         inkscape:connector-curvature="0"
         style="fill:#3b3c3e;stroke:#3b3c3e;stroke-width:0.25;stroke-miterlimit:10" /><path
         class="st2"
         d="m 260.32,115.36 c -1.63,0 -3.26,0.57 -4.88,1.7 l -0.42,-1.7 h -1.59 v 13.33 h 2.35 V 119 c 1.21,-1.13 2.49,-1.69 3.83,-1.69 1.97,0 2.96,0.99 2.96,2.97 v 8.4 h 2.35 v -8.37 c 0.01,-3.29 -1.53,-4.95 -4.6,-4.95 z"
         id="path26"
         inkscape:connector-curvature="0"
         style="fill:#3b3c3e;stroke:#3b3c3e;stroke-width:0.25;stroke-miterlimit:10" /><path
         class="st2"
         d="m 276.35,110.54 h -7.74 v 18.15 h 2.35 v -16.21 h 5.18 c 1.93,0 2.89,0.84 2.89,2.51 0,2.12 -1.73,3.45 -5.21,4 l 0.48,1.98 c 4.82,-0.78 7.22,-2.81 7.22,-6.08 0.01,-2.9 -1.71,-4.35 -5.17,-4.35 z"
         id="path28"
         inkscape:connector-curvature="0"
         style="fill:#3b3c3e;stroke:#3b3c3e;stroke-width:0.25;stroke-miterlimit:10" /><path
         class="st2"
         d="m 290.01,115.36 c -4.26,0 -6.39,2.17 -6.39,6.51 0,4.54 2.25,6.82 6.74,6.82 1.68,0 3.11,-0.13 4.29,-0.38 v -1.9 c -1.18,0.25 -2.35,0.38 -3.53,0.38 -3.44,0 -5.15,-1.36 -5.15,-4.09 h 8.98 c 0.79,-4.89 -0.86,-7.34 -4.94,-7.34 z m -4.04,5.39 c 0.15,-2.34 1.37,-3.5 3.66,-3.5 2.23,0 3.29,1.17 3.17,3.5 z"
         id="path30"
         inkscape:connector-curvature="0"
         style="fill:#3b3c3e;stroke:#3b3c3e;stroke-width:0.25;stroke-miterlimit:10" /><path
         class="st2"
         d="m 299.97,113.2 h -1.47 v 11.9 c 0,2.4 1.12,3.59 3.35,3.59 h 1.73 v -1.9 h -1.12 c -1.07,0 -1.61,-0.62 -1.61,-1.87 v -7.66 h 2.73 v -1.9 h -3.1 z"
         id="path32"
         inkscape:connector-curvature="0"
         style="fill:#3b3c3e;stroke:#3b3c3e;stroke-width:0.25;stroke-miterlimit:10" /><rect
         x="306.62"
         y="110.54"
         class="st2"
         width="2.3499999"
         height="1.9"
         id="rect34"
         style="fill:#3b3c3e;stroke:#3b3c3e;stroke-width:0.25;stroke-miterlimit:10" /><rect
         x="306.62"
         y="115.36"
         class="st2"
         width="2.3499999"
         height="13.33"
         id="rect36"
         style="fill:#3b3c3e;stroke:#3b3c3e;stroke-width:0.25;stroke-miterlimit:10" /><path
         class="st2"
         d="m 314.12,113.2 h -1.47 v 11.9 c 0,2.4 1.12,3.59 3.35,3.59 h 1.73 v -1.9 h -1.12 c -1.07,0 -1.61,-0.62 -1.61,-1.87 v -7.66 h 2.73 v -1.9 h -3.1 z"
         id="path38"
         inkscape:connector-curvature="0"
         style="fill:#3b3c3e;stroke:#3b3c3e;stroke-width:0.25;stroke-miterlimit:10" /><rect
         x="320.76999"
         y="110.54"
         class="st2"
         width="2.3499999"
         height="1.9"
         id="rect40"
         style="fill:#3b3c3e;stroke:#3b3c3e;stroke-width:0.25;stroke-miterlimit:10" /><rect
         x="320.76999"
         y="115.36"
         class="st2"
         width="2.3499999"
         height="13.33"
         id="rect42"
         style="fill:#3b3c3e;stroke:#3b3c3e;stroke-width:0.25;stroke-miterlimit:10" /><path
         class="st2"
         d="m 332.51,115.36 c -4.23,0 -6.35,2.22 -6.35,6.67 0.02,4.44 2.13,6.65 6.35,6.65 4.23,0 6.35,-2.22 6.35,-6.65 0,-4.45 -2.12,-6.67 -6.35,-6.67 z m 0,11.43 c -2.67,0 -4,-1.6 -4,-4.81 0,-3.14 1.33,-4.71 4,-4.71 2.67,0 4,1.57 4,4.71 0,3.2 -1.33,4.81 -4,4.81 z"
         id="path44"
         inkscape:connector-curvature="0"
         style="fill:#3b3c3e;stroke:#3b3c3e;stroke-width:0.25;stroke-miterlimit:10" /><path
         class="st2"
         d="m 348.78,115.36 c -1.63,0 -3.26,0.57 -4.88,1.7 l -0.42,-1.7 h -1.59 v 13.33 h 2.35 V 119 c 1.21,-1.13 2.49,-1.69 3.83,-1.69 1.97,0 2.96,0.99 2.96,2.97 v 8.4 h 2.35 v -8.37 c 0.01,-3.29 -1.52,-4.95 -4.6,-4.95 z"
         id="path46"
         inkscape:connector-curvature="0"
         style="fill:#3b3c3e;stroke:#3b3c3e;stroke-width:0.25;stroke-miterlimit:10" /></g></g></svg>