<svg xmlns="http://www.w3.org/2000/svg" width="1001" height="768" viewBox="-1.638 -1.638 75.452 57.869"><path d="m63.145 23.54-2.712-7.965h2.093l1.589 5.484h.037l1.59-5.484h2.094l-2.714 7.964v5.836h-1.977m-9.574-1.979h.853c1.589 0 1.705-.97 1.705-2.325 0-1.376-.253-2.093-1.686-2.093h-.872v4.418zm0-6.163h.89c1.32 0 1.668-.678 1.668-1.939 0-1.22-.445-1.86-1.744-1.86h-.814v3.8zm-1.977-5.658h2.888c2.558 0 3.508 1.684 3.508 3.487v.504c0 1.474-.485 2.016-1.356 2.558.929.447 1.356 1.28 1.356 2.713v.776c0 2.404-1.144 3.76-3.7 3.76h-2.696m-8.413-1.977h.853c1.59 0 1.706-.97 1.706-2.325 0-1.376-.25-2.093-1.686-2.093h-.873v4.418zm0-6.163h.893c1.318 0 1.666-.678 1.666-1.939 0-1.22-.446-1.86-1.745-1.86h-.814v3.8zm-1.975-5.658h2.887c2.557 0 3.509 1.684 3.509 3.487v.504c0 1.474-.485 2.016-1.358 2.558.93.447 1.358 1.28 1.358 2.713v.776c0 2.404-1.144 3.76-3.703 3.76h-2.693m-8.529-3.256c0 .95.62 1.396 1.338 1.396.716 0 1.337-.446 1.337-1.396V18.83c0-.949-.62-1.395-1.337-1.395s-1.338.446-1.338 1.395v7.287zM30.7 18.83c0-2.248 1.706-3.373 3.315-3.373 1.608 0 3.314 1.125 3.314 3.373v7.287c0 2.249-1.706 3.373-3.314 3.373-1.609 0-3.315-1.124-3.315-3.373m-8.024-10.542h1.977v11.821h3.915v1.979h-5.892" style="fill:#1f1d20;fill-opacity:1;fill-rule:nonzero;stroke:none"/><path d="M18.362 23.106V.8h52.996v52.997H18.362V41.837" style="fill:none;stroke:#1f1e20;stroke-width:1.61500502;stroke-linecap:butt;stroke-linejoin:miter;stroke-miterlimit:4;stroke-opacity:.84705882;stroke-dasharray:none"/><path d="M3.219 25.627C1.3 25.627 0 27.012 0 28.815v7.594c0 2.52 1.738 3.25 3.25 3.25 1.764 0 3.156-1.483 3.156-3.188v-.844h-2v.657c0 1.086-.676 1.406-1.218 1.406-.892 0-1.22-.611-1.22-1.406V29.22c0-.931.231-1.594 1.22-1.594.756 0 1.218.631 1.218 1.407v.687h2v-.781c0-1.919-1.365-3.313-3.187-3.313zm9.906 0c-1.608 0-3.313 1.128-3.313 3.375v7.282c0 2.248 1.705 3.375 3.313 3.375 1.609 0 3.313-1.127 3.313-3.375v-7.282c0-2.247-1.704-3.375-3.313-3.375zm39.313 0c-1.61 0-3.313 1.128-3.313 3.375v7.282c0 2.248 1.704 3.375 3.313 3.375 1.608 0 3.312-1.127 3.312-3.375v-7.282c0-2.247-1.704-3.375-3.313-3.375zm-32.376.125v13.813h1.97v-8.313h.03l3.032 8.313h1.875V25.752h-2v8.313h-.032l-2.968-8.313h-1.907zm9.625 0v1.875h2.282v11.938h1.968V27.627h2.313v-1.875h-6.563zm9.375 0v13.813h1.97v-5.906h1.187l1.843 5.906h2.094L44 33.252c1.262-.698 1.719-1.848 1.719-3.437 0-2.676-1.157-4.063-3.5-4.063h-3.157zm20.376 0v13.813h5.906v-2h-3.938V25.752h-1.968zm-46.313 1.875c.717 0 1.344.425 1.344 1.375v7.282c0 .951-.627 1.406-1.344 1.406-.717 0-1.313-.455-1.313-1.406v-7.282c0-.95.596-1.375 1.313-1.375zm27.906 0h1.032c1.453 0 1.687.73 1.687 2.125 0 1.377-.215 2.157-1.594 2.157h-1.125v-4.282zm11.407 0c.716 0 1.343.425 1.343 1.375v7.282c0 .951-.627 1.406-1.343 1.406-.718 0-1.344-.455-1.344-1.406v-7.282c0-.95.626-1.375 1.343-1.375z" style="fill:#ff6602;fill-opacity:1;fill-rule:nonzero;stroke:none"/></svg>