<?xml version="1.0" encoding="UTF-8"?><svg xmlns="http://www.w3.org/2000/svg" viewBox="0 0 500 222.22"><g id="Ebene_1"><g><polygon points="20.24 115.55 .04 91.4 .04 122.93 3.12 122.93 3.12 100.16 23.32 124.35 23.32 92.69 20.24 92.69 20.24 115.55"/><polygon points="42.31 122.93 62.27 122.93 62.27 119.76 45.39 119.76 45.39 109.37 58.54 109.37 58.54 106.25 45.39 106.25 45.39 95.81 62.27 95.81 62.27 92.69 42.31 92.69 42.31 122.93"/><polygon points="78.63 95.81 90.21 95.81 90.21 122.93 93.33 122.93 93.33 95.81 104.87 95.81 104.87 92.69 78.63 92.69 78.63 95.81"/><polygon points="141.02 92.69 121.08 92.69 121.08 95.81 135.9 95.81 121.77 122.93 141.75 122.93 141.75 119.85 126.92 119.85 141.02 92.69"/><polygon points="183.45 114.99 175.38 94.04 167.22 115.09 160.24 92.69 157.02 92.69 166.93 124.5 175.38 102.64 183.73 124.51 193.6 92.69 190.34 92.69 183.45 114.99"/><polygon points="209.73 122.93 229.69 122.93 229.69 119.76 212.81 119.76 212.81 109.37 225.96 109.37 225.96 106.25 212.81 106.25 212.81 95.81 229.69 95.81 229.69 92.69 209.73 92.69 209.73 122.93"/><path d="m259.64,109.97h0c.93-.11,1.9-.39,2.86-.82,1.43-.6,2.68-1.6,3.72-2.97,1.05-1.39,1.59-2.99,1.59-4.74,0-1.12-.25-2.22-.75-3.28-.49-1.05-1.21-1.99-2.12-2.82-.95-.85-2.06-1.51-3.32-1.97-1.25-.45-2.61-.68-4.04-.68h-10.72v30.24h3.08v-27.16h7.64c1.44,0,2.71.28,3.8.84,1.08.56,1.92,1.27,2.49,2.14.57.85.85,1.75.85,2.69,0,1.06-.33,2-1.01,2.89-.69.9-1.52,1.58-2.43,2.01-1.31.54-3.05.81-5.19.81h-4.71l12.99,15.78h4.07l-10.57-12.82c.61-.02,1.2-.07,1.76-.14Z"/><polygon points="308.82 92.69 304.95 92.69 288.74 114.98 288.74 92.69 285.66 92.69 285.66 124.52 295.65 110.82 305.83 122.93 309.9 122.93 297.5 108.19 308.82 92.69"/><path d="m12.78,154.44h0c.93-.11,1.9-.39,2.86-.82,1.43-.6,2.68-1.6,3.72-2.97,1.05-1.39,1.59-2.98,1.59-4.74,0-1.12-.25-2.22-.75-3.28-.49-1.05-1.21-1.99-2.12-2.82-.95-.85-2.06-1.51-3.31-1.97-1.25-.45-2.61-.68-4.04-.68H0v30.24h3.08v-27.16h7.64c1.43,0,2.71.28,3.8.84,1.08.55,1.92,1.27,2.5,2.13.57.85.85,1.75.85,2.69,0,1.06-.33,2-1.01,2.89-.69.9-1.52,1.58-2.43,2.01-1.31.54-3.05.81-5.19.81h-4.71l12.99,15.78h4.07l-10.57-12.82c.61-.02,1.2-.07,1.76-.14Z"/><polygon points="38.79 167.4 58.75 167.4 58.75 164.23 41.87 164.23 41.87 153.84 55.02 153.84 55.02 150.72 41.87 150.72 41.87 140.28 58.75 140.28 58.75 137.16 38.79 137.16 38.79 167.4"/><path d="m97.92,160.02c-1.17,1.43-2.6,2.56-4.24,3.36-1.64.8-3.4,1.2-5.22,1.2-2.2,0-4.25-.56-6.1-1.65-1.86-1.1-3.36-2.62-4.46-4.5-1.1-1.88-1.66-3.97-1.66-6.2s.56-4.32,1.66-6.2c1.1-1.88,2.6-3.4,4.46-4.5,1.85-1.1,3.91-1.65,6.1-1.65,1.71,0,3.36.36,4.92,1.07,1.56.71,2.92,1.73,4.06,3.01l.35.39,2.37-2.1-.37-.4c-1.47-1.6-3.22-2.86-5.18-3.74-1.96-.88-4.03-1.33-6.16-1.33-2.75,0-5.33.7-7.68,2.09-2.34,1.39-4.22,3.28-5.57,5.62-1.36,2.34-2.05,4.94-2.05,7.72s.69,5.38,2.05,7.74c1.36,2.36,3.23,4.26,5.57,5.65,2.35,1.39,4.93,2.09,7.68,2.09,2.31,0,4.54-.51,6.6-1.51,2.07-1,3.85-2.43,5.3-4.25l.33-.42-2.44-1.9-.33.4Z"/><polygon points="136.24 150.72 120.06 150.72 120.06 137.16 116.94 137.16 116.94 167.4 120.06 167.4 120.06 153.84 136.24 153.84 136.24 167.4 139.32 167.4 139.32 137.16 136.24 137.16 136.24 150.72"/><polygon points="158.35 167.4 178.31 167.4 178.31 164.23 161.43 164.23 161.43 153.84 174.58 153.84 174.58 150.72 161.43 150.72 161.43 140.28 178.31 140.28 178.31 137.16 158.35 137.16 158.35 167.4"/><path d="m208.26,154.44h0c.93-.11,1.9-.39,2.86-.82,1.43-.6,2.68-1.6,3.72-2.97,1.05-1.39,1.59-2.99,1.59-4.74,0-1.12-.25-2.22-.75-3.28-.49-1.05-1.21-1.99-2.12-2.82-.95-.85-2.06-1.51-3.32-1.97-1.25-.45-2.61-.68-4.04-.68h-10.72v30.24h3.08v-27.16h7.64c1.44,0,2.71.28,3.8.84,1.08.56,1.92,1.27,2.49,2.14.57.85.85,1.75.85,2.69,0,1.06-.33,2-1.01,2.89-.69.9-1.52,1.58-2.43,2.01-1.31.54-3.05.81-5.19.81h-4.71l12.99,15.78h4.07l-10.57-12.82c.61-.02,1.2-.07,1.76-.14Z"/><path d="m257.03,160.02c-1.17,1.43-2.6,2.56-4.24,3.36-1.64.8-3.4,1.2-5.22,1.2-2.2,0-4.25-.56-6.11-1.65-1.86-1.1-3.36-2.62-4.46-4.5-1.1-1.88-1.66-3.97-1.66-6.2s.56-4.31,1.66-6.2c1.1-1.89,2.6-3.4,4.46-4.5,1.85-1.1,3.91-1.66,6.11-1.66,1.71,0,3.36.36,4.92,1.07,1.55.71,2.92,1.73,4.07,3.01l.35.39,2.37-2.1-.37-.4c-1.48-1.6-3.22-2.86-5.18-3.74-1.96-.88-4.03-1.33-6.16-1.33-2.75,0-5.33.7-7.68,2.09-2.34,1.39-4.22,3.28-5.58,5.62-1.36,2.35-2.05,4.94-2.05,7.72s.69,5.38,2.05,7.74c1.36,2.36,3.23,4.26,5.58,5.65,2.35,1.39,4.93,2.09,7.68,2.09,2.31,0,4.54-.51,6.6-1.51s3.85-2.43,5.3-4.25l.33-.42-2.44-1.9-.33.4Z"/><polygon points="295.36 150.72 279.18 150.72 279.18 137.16 276.05 137.16 276.05 167.4 279.18 167.4 279.18 153.84 295.36 153.84 295.36 167.4 298.43 167.4 298.43 137.16 295.36 137.16 295.36 150.72"/><polygon points="337.43 140.28 337.43 137.16 317.47 137.16 317.47 167.4 337.43 167.4 337.43 164.23 320.55 164.23 320.55 153.84 333.7 153.84 333.7 150.72 320.55 150.72 320.55 140.28 337.43 140.28"/></g></g><g id="Ebene_2"><g><polygon points="440.37 0 317.47 36.89 376.12 76.79 388.58 38.96 440.37 0" fill="#e14191"/><polygon points="434.52 52.9 440.37 0 420.23 48.57 434.52 52.9" fill="#3192d0"/><polygon points="420.23 48.57 440.37 0 388.58 38.96 420.23 48.57" fill="#64378c"/><polygon points="458.89 60.3 434.52 52.9 431.82 77.29 401.4 93.98 401.4 93.98 401.4 93.98 363.63 114.71 467.53 103.66 458.89 60.3" fill="#6cbe99"/><polygon points="401.4 93.98 431.82 77.29 434.52 52.9 420.23 48.57 401.4 93.98" fill="#008287"/><polygon points="376.12 76.79 363.63 114.71 401.4 93.98 376.12 76.79" fill="#008287"/><polygon points="401.4 93.98 420.23 48.57 388.58 38.96 376.12 76.79 401.4 93.98 401.4 93.98" fill="#3c326e"/><polygon points="467.53 103.66 491.14 222.22 500 100.2 467.53 103.66" fill="#fed061"/><polygon points="363.63 114.71 491.14 222.22 467.53 103.66 363.63 114.71" fill="#78a04b"/></g></g></svg>