<svg width="152" height="32" viewBox="0 0 152 32" version="1.1" id="svg6" xmlns="http://www.w3.org/2000/svg"><g fill="#000" id="g4"><path d="M.325 26.255l-.26.19-.065-.19zm-.26.19L0 26.57v-.128h.064zm.715 1.58l-.13.315-.323.13L0 28.215l.39-.125.39-.064zm-.258.95l.192.38-.257.315v-.38zm11.91-7.717l.13.378-.26.32-.326.312-.392-.252-.39-.126-.06.25.39.193-.26.502.06.254.07-.19.327-.44.388.44.392.125v.443l-.06.508-.456.252.195-.06.327.315.196.443-.196.506-.06.06.196.315-.06.442-.26.38-.26.06.06.06.457.252-.128.193.13-.06.26-.256.39-.06.195.06-.06-.06-.39-.125-.195-.38.06-.442.392-.316.52-.126.393.38.06.19.13-.253.586-.127.326.442.262.316v.06h.26l.457.317.327.44-.07.126.39.128.196.444-.78.632-.06-.06-.132.127-.392.188h.194l.26.57-.452.378h-.462l-.323-.124-.195-.382.13-.442.456-.126-.13-.06-.456-.06-.26-.38-.262-.188v.314l-.39.254-.39.06-.457.128-.39-.19-.327-.188-.455.06-.39.06-.52.127-.323.13-.394-.06h-.193l.455.124h.39l.392.254-.26.442-.132.38-.39.38-.453-.38-.456-.317.323-.44.13-.44H9.7l-.196-.38-.195-.317v.06l.263.44-.26.445-.13.126.39.38-.324.44-.263.254-.39.06-.522.06-.258-.44.065-.507.193-.07-.064-.06-.454-.126-.327-.378.065-.19h-.065l-.454-.06-.127-.256-.328.32-.067.315.26-.19.392.128.263.315.063.38-.26.312-.323.13-.395-.07-.452-.188.065-.19-.393.19-.26.314-.457-.06-.323-.253-.198.316-.26.445-.454-.315-.588-.19.068-.57.388-.25.392-.127.326-.06h-.2l-.52.136-.393-.377-.322-.26-.196.256-.455.19-.458-.316-.063-.443-.393-.317.13-.507.457-.25.455-.127.52.19.064.187.194-.313-.063-.06-.26-.316-.196-.505.39-.444.52-.06.455.188.066.38v.315l-.194.316.718.06.26.38.062.443v.123l.196-.315.26-.252-.26-.19-.326-.504.195-.505.59-.126.456-.254.518.316v.128l.194-.444-.26-.505.26-.444.132-.505.78.38.195.253.26.443-.39.127.13.127.392.126.064-.06-.065-.07-.13-.504-.062-.445.192-.442.52-.124v-.07l-.062-.121h-.587l-.195-.507.325-.443.196-.254.39-.38h-.065l-.456-.188-.26-.442.13-.444.26-.38.455-.06.458-.253.26.442.13.19.063-.06.132-.188v-.06l-.457-.316.323-.444-.453.06-.26.315h-.455l-.522-.071.13-.566-.064-.383-.262-.443v-.504l.326-.317.196-.316-.456.06-.196-.507-.26-.38v-.378l.325-.316v-.06l-.194-.066.062-.506v-.82l.392-.19.26-.19-.133-.06.066-.443-.322-.44.257-.256-.128-.254-.326-.253.065-.443v-.19l-.39.124-.453-.126-.063-.567.322-.445.585.128.328.442L8 11.52l.328-.19L8 11.14l-.455-.19.13-.502v-.38l.198-.19-.456-.257-.064-.378H7.22l-.39.38-.325-.444-.52-.128-.13-.314-.26.314-.52-.127.065-.314-.328-.19-.387-.126-.068-.442-.456-.444-.713.064-.132-.508.065-.124-.325-.32-.13-.38-.064-.31-.068-.19-.13.44.133.568-1.17-.125.06-.57.263-.313.392-.315.452.315-.13-.382.52-.19.394-.126.195.062-.195-.316-.456-.315.39-.38.325-.253.39-.378.326.505.327.126.26-.444.393-.253.39.19.26.316.195.38.195-.126.193-.38h.52l.264.316.193.378-.26.318-.064.25h.13v.065l.13-.125.39-.19V4.56l-.327-.44.263-.442.455-.255.454.063.522-.063.39.38v.062l.132-.316h.584l.39-.127.522.253.13.505-.13.317.39-.126-.13-.377.455-.13.457-.25.26.506-.13.314h.13l.26.38v.124l.07-.062.455-.128.392.253.07.38.52-.315.456-.063.457.127v.444l.06.252h.194l.263-.315.195-.38.39-.253.78.252.13.315.327-.252.39-.128.39.19.52-.064.133.443.06.126.06-.127v-.378l.194-.32.067-.125-.257.065-.263-.442-.065-.063-.195.313-.52.252-.522-.315-.063-.63.583-.192.326-.188.392.252.262-.316.324-.188.328-.506.52.062.194.505.07.064.195-.38.26-.38.193.063v-.06l-.133-.443.456-.064h.327l.39.316-.325.38-.195.063.13.062.457.127-.06.44.13.19.194-.506.456-.19h.454l.392.127.258.064V3.04h.586l.326-.063.456-.126.457.127.194.442.39-.125-.07.502-.06.19-.26.19h-.393l-.194.38-.326.127.52.19-.06.253h.52L26.556 5l.322.064.588-.064v.884l-.133.318-.06.253.326-.19.52.253.327.316v.443l-.06.508.26.312.455.19-.26.442v.505l-.263.062.07.063.26.383v.38l-.193.315-.198.19h.26l.13.567.263.188.13-.313h.52l.325.317.196.38-.262.506-.52-.06-.327-.13v.317l-.653.19h.134l.324.128.456.25v.445l-.07.19.523-.128-.193.504.13.506-.522-.188-.194-.06v.06l-.59-.06-.19.06.193.06.262.883-.197.38-.456.252H27.6l-.132-.57-.196-.44.26-.44.328-.192-.132-.127-.195-.38.06-.44.262-.634h-.392l-.13-.06h-.13l-.326.127-.39.06-.455-.128-.195-.378-.13-.442.13-.507.26-.06-.26-.06.06-.507v-.38l.27-.507-.065-.062-.457-.126-.194-.193-.194.192-.524-.13-.323-.192-.327-.25-.262-.38.13-.378-.13-.19-.13-.314-.26.062-.39.38.455.126.196.38-.13.378-.39.318-.52-.256.06-.568.324-.38-.387-.314-.325-.126v.062l-1.173.126-.127-.568-.262-.446.39-.25-.258-.255v.127l-.39.128.26.314-.324.442.13.444-.458.19-.324.19-.394-.063-.39-.188-.39-.254-.07-.064-.257.253.127-.062.198.567-.13.507-.392.315-.324-.253-.06.125.07.446-.456.19h-.195l.13.063.39.315-.194.504-.453.193-.455-.19-.196-.38v-.506l.382-.19-.13-.063-.128-.317v-.127l-.263.188-.323.256-.13.064.06.315.13.443-.39.38-.39.316-.263-.07-.26.445h-.194l.13.127.07.252v-.06l.456-.06.456-.254.457.254.26.44-.07.51-.454.19-.197.503h-.52l-.26-.442-.26-.252-.198.126-.13.252.194.38-.195.378-.324.316-.455.257-.39-.32h-.06l-.195.13-.132.504-.323-.06.26.253.26.315.197.44-.197.443-.196.19.262.127-.258.57.258.505-.91.382-.327-.254-.26-.318-.26-.253-.195.38-.39.318.128.06.196.316v.44l-.326.317-.326.254-.06.06h.13l.39-.07.392.06.07-.125.132-.06-.262-.44.26-.505.522.06.388-.06.46.126-.07.503v.51h-.39l.197.257-.133.376-.132.442-.387.316-.2-.187-.193.377-.06.06.13.126.456-.254.52.06.06.508zm-10.35 9.045l-.455-.06-.13-.443-.326-.442.392-.44.52-.128.523.127.193.44v.507l-.193.38-.522.06zm-.65-3.86l.39-.44.262-.19.195.316-.26.38-.588-.07zM2.467 4.816l-.584-.127-.195-.567.325-.442.454-.062.392.124.128.38-.196.317-.325.378zM2.34 2.35h.06l.066.125-.127-.125zm.26 5.375l-.197-.063v-.127l.198.19zm-.193 16l.064-.06-.063.19v-.13zM3.445 2.35l-.26-.127.195-.316.324.063-.063.253-.195.127zm.396 22.07l-.132.06v-.126l.133.06zm.19-15.37l.194-.06-.127.188-.13.13.13-.19-.066-.068zm0-2.402l.194.126v.508l.198-.128.26-.316.064-.063-.064-.063-.325-.25-.066-.256-.13.128-.13.314zm.195-1.517l.198.38.064-.124.26-.382.324-.125-.326-.318-.583.57h.065zm.268 23.593h.258l-.128-.19h-.066l-.192.253H4.23l.197.253.066-.317zM5.07 2.6l.392-.44.456.252-.13.316-.26.126zm.46 22.072l-.388.19.26-.316v-.06l.39-.06-.26.252zm-.066-17.96l-.13.062H5.4l.324.127.26.318.064.382-.194.313-.193.254h.13l.326.254.13-.126.127-.38.197-.062-.067-.57-.324-.318.13-.19-.26-.19-.064.19-.522-.062zm.065 4.113l.13-.06-.065.19-.258.125.062-.25h.13zm.845-5.758l.195-.13v-.06l-.456-.062-.26-.378V4.5l-.26.25-.197.13h.195l.39.186v.13l.393-.13zm-.45 24.158l.064-.06.13-.19h-.263l.067.25zm.584-1.96v-.252l-.062-.06-.132-.06v.06l-.194.07.325.314v.06l.064-.124zm.584-11.763l-.39.444-.393-.38.065-.38.52-.19.2.506zm-.718-5.438l.26-.443.65.634-.13.38-.452.19-.133-.44-.194-.32zm.52 7.148l-.324-.19.26-.444.457.19-.066.442zm-.323 3.92l.39-.06.327.188-.128.44-.33-.252-.26-.316zm.586-2.91l.063.315v.316l-.392-.125-.128-.443.457-.062zm-.327 4.554l.263.126.39.25-.457.07-.262-.126.065-.318zm.388-9.613l.524-.063-.455.316h-.13l-.263-.253zm0-5.25l.26.317.196-.063-.065-.254-.064.063-.454-.19-.066.002.195.125zm-.064-5.06l.194-.06.325-.065-.196.252-.26.126-.064-.252zm.198 17.33l-.13-.06v-.252l.39-.188.195.504h-.456zm.583-17.898l.192-.445.326.256.13.252-.26-.062h-.39zM8.33 17.65l.39.193.197-.254.324-.38h.065l-.13-.254-.52.51-.324.184zm1.3-13.343l-.067.444-.26.315-.194.128.063.254v.443l-.258.316-.13.378-.065.064.648.253.132.188v-.314l.13-.442-.067-.062-.193-.38-.13-.443.323-.382h.456l.26-.252h-.13l-.587-.63.066.124zm-.387 23.275v.125l.063-.315.065-.06-.192-.38-.063.06-.195.507.323.06zm.127-16.128l-.324-.06-.066.06.132.127.193.06v-.123l.065-.063zm.52-3.92l-.26-.19.065.316-.132.316-.26.318-.127.377v.253l.067-.125.13-.443.453-.063.392-.316.196.128-.06-.19-.13-.19-.327-.19zm-.256 18.15l-.262.127h-.194l.196.193.26-.318zm-.327-3.413v.06l.195-.254-.26.127.065.06zm.13 1.517l.064.127v-.127H9.44zm.388-11.066l-.062-.19-.263-.06v.187l.325.06zm-.19 9.36v-.062l-.135-.13v.19h.132zM9.823 2.35l.065-.38.39-.19-.13.38v.128zm.852 22.766l-.39.253-.457-.06.065.25.13-.06.456-.13.26.254v-.06l.195-.38H11v-.186l-.325.124zm-.135-20.3l.458.442.06.125v-.06l-.193-.507.06-.064-.328.063h-.06zm.327 3.857l.06.064v-.19l-.195-.06.13.187zm-.13 2.153l.26.378v.127l.323-.06h-.26l-.26-.442-.06-.125v.125zm.196 3.985l.262-.254h-.07l-.196-.188v.252l-.195.06.13.254.07.06v-.19zm.07-1.839l-.06-.126-.132.06.06.188.132-.126zm.324 3.67l-.06-.06-.06.19.13-.126zm-.06 7.21v.126l.06.06-.06-.188zm.778-9.298l-.324-.126-.39.06.457.127.258-.06zm.655 15.05l-.258.442-.52.19-.328-.443-.195-.253v-.885l.522.126.324.06.522.188-.07.572zm-1.172-5.437l.07.127h.195l.195-.06-.454-.06zm1.104-13.724l-.06.505h-.586l-.393.317h.2l.454-.06.52.19.07.442.197-.19.127-.188-.39-.253-.13-.504v-.253zm.194-4.175l-.194-.19-.13.444h-.715v.253l.13.063.39.124.26.318.06.38-.13.38-.13.125.258.38.07-.253-.07-.505h.06l.067-.507v-.442l.393-.19.065-.128-.392-.252zm.133 3.478l.324-.316h.195l-.202-.188h-.193l-.06.378-.197.126v.192l.13-.192zm.39 8.475l-.26-.126-.194-.06.26.06-.06-.06.26.19zm1.112 10.88l-.06.44-.262.38-.392.19-.52-.06-.262-.442.13-.442.06-.44.52.122h.327l.458.254zm-.98-12.08l-.325-.316.392-.19.52.254-.393.317-.195-.07zm.65-2.53l.13.44-.192.38-.393.38-.39-.38v-.378l-.06-.442.455-.06zM13.47 4.12l-.13-.382.196.062-.067.13v.19zm.264 19.478l-.26-.128.06-.38.324.19.13.253-.26.06zm0-2.024v.25l-.196-.188.196-.315-.06.316.06-.06zm0-15.434h.326l-.199-.188-.13.188zm0 18.404l.06-.19v.192l-.07.06.07-.13-.07.06zm0 2.403l.262.06.06.444.13.25.197-.315.13-.13-.264-.25-.06-.38-.06-.126-.13.127zm.908-18.843l.195-.13.06-.062-.13-.062-.06-.127v.064l-.132.253.07.064zm.846 5.373l.197.38-.392.188-.13-.188v-.19zm1.173-1.013h-.324l.196-.318.455.444-.326-.128zm-.257 17.39l-.06-.252.13-.378.258.38.07.376-.39-.125zm.45-21.814l-.39.125h-.06l.13.19.326-.313zm0-4.62l.198.443.13.443-.52-.062.06-.38.13-.443zm.658 22.263v.378l-.326.19-.392.06-.128-.311v-.443h.457l.39.126zm.06-17.52l-.196-.19-.52.067.456.378.06.06-.06-.25zm.72 6.643l-.133.188-.13.127v-.378l.262.06zm-.256 14.735l.128-.254-.128.06.128-.252.132.314-.26.13zm.447-19.226l-.19.127v-.315l.19.19zm-.07-7.4l-.06-.316.263.192-.13.188v-.19l-.07.126zm-.06 24.665l.325-.255.26.317-.126.318-.327-.06-.13-.317zm.26-.824l-.194-.25.26.06-.06.188zm.717-20.36l-.19-.128-.068.062v.316l.257-.25zm3.46 22.825l-.196.507-.07.383-.39.126-.52.252-.197-.507-.13-.377.26-.316.196-.442h-.52l-.13-.505-.392.44.195.19-.39.38h-.327l-.387-.06-.264-.506h.07l-.06-.378-.192-.44.258-.443.523-.32.52.19.13.508v.06l.13-.256-.26-.57.327-.38.52-.125.456.254.324.19.326.252.07.128.13-.06.262-.316h-.197l-.325-.442-.39-.253.13-.442.325-.32.39-.315.325.445.522.252-.194.506-.26.442-.13.06.322-.06.392.38.26.19v-.32l.263-.25h-.393l-.13-.505.325-.38.26-.252.326-.127h.39l.392.19.06-.126-.13-.06-.392-.444v-.57l.587-.123.324-.508.523.253.193.442.197.567-.06.127h.06l.326.125.13.128.127-.128-.128-.06-.327-.38v-.506l.06-.443v-.507l.194-.06-.194-.19-.197.128-.32.187-.392.128-.39-.13-.262-.44.195-.38v-.568l-.258-.38-.133-.44.196-.444.323-.317.52.125.39-.126h-.78l-.39-.317v-.44l-.07-.507.52-.19.325-.19.457.06.26.126.326-.254h.192v-.06l-.457-.127.07-.19-.325.13-.453.125-.263-.38-.13-.255v-.44l.325-.19.456-.06.26.31.26.128-.06-.252.584-.06.458.188.39.317v.51l-.262.442-.13.06.06.44-.13.32-.195.313-.52.317-.196-.506-.197-.06.263.382-.456.314h-.195l.328.25.26.316.07.255.39-.38.522.06.39.06.132.315.06.38-.195.317-.262.127v.06l.07.38-.39.38.39.253.328.25.195.38v.38l-.132.378-.06.57h-.52l-.523.19.26.06.456-.127.457.125.262.444-.07.442v.06l.193.06.06-.127-.13-.505.455-.06.393-.06.584.126v.505l-.323.38-.26.125-.197.127.326.126.07.447v.312l.132-.44.39-.382.455.253.588.13-.06.63-.52.126-.523.256-.454-.317-.07.13.457.19-.132.44v.57l-.584.19-.52-.06-.07-.57-.194-.378v-.06l-.06-.06h-.06l-.13.127-.39.19h-.848l.194.06.457.126-.06.506-.195.38-.198.44-.584.06-.456-.38-.262.126h-.52l-.456-.883-.326.314-.518-.126-.52.06v.19l-.328.318-.453.188-.458-.126-.13-.442-.196-.442.263-.444h.06l-.26-.255-.393-.19-.13-.187-.13.504h.07l.457.32zM20.24 8.606v.38l-.454-.064-.13-.312.323-.254.26.25zm-.255 18.088l-.326-.06.26-.253.13.126v.06l-.06.125zm.45-24.347l.13.442-.456.064-.39-.127.06-.378.13-.32h.39l.13.32zm.65 2.4v.065l.06-.063h.07l-.067-.126-.322-.125-.13.252h.39zm.982 21.567l-.455.253-.326-.315-.453-.25.26-.444.39-.06.325.06.39.315-.13.443zM21.15 8.985l.07-.314.197-.064.13.127h-.13l-.267.252zm.978-4.364l.262.382v.062l.324-.128h.07l-.26-.19-.196-.44-.132.063-.324.188-.07.062h.326zm.196 2.216v-.19l-.39-.126-.07.062.128.064.262.25.06-.06zm1.236-4.303l-.262.064-.324-.252.39-.38.392.317-.196.25zm.07 8.03l-.195.258v-.318h.13l.07.06zm1.366-4.36l-.456.377-.392-.442-.26-.188-.06.13v.315l.323.123-.06.19h.388l.325-.128.328.064.06-.19.39-.252.06-.064h-.06l-.07.064h-.518zm-1.037 23.083l.193.06v-.06l.327-.38.194-.254.39-.316-.324-.125h-.13v.126l-.13.442-.328.442h-.26l.07.07zm1.037-17.204l-.326.13h-.52l.06-.508.26-.315.326.19.393.124-.196.378zm-.587-9.55l.06-.38v.383l.26.315h-.454l.13-.32zm.783 7.404l.06.443v.375l-.39.07-.52.19V10.5l.07-.38.323-.44.46.254zm-.778 14.984l.06-.252h.07l.13.128zm.455-2.846l-.327-.252.327-.125h.325l.06.442zm-.326 1.203l.07-.125.06.125zm.262 1.39h-.26v-.06zm-.196-4.932l.39-.315.13.06.07.06-.13.316zm.65 2.974l-.06.314-.325-.126-.13-.506.585-.19-.07.507zm-.196-7.654h.26l.07.19.13-.317.13-.254-.196-.442-.13-.127-.26-.127-.07-.316.196-.126v-.19l.39-.44.522.252.323.06.59.06-.2.442-.06.315-.127.443-.07.06.192-.06.198.38.322.253.07.38v.44l-.258.446-.264.06.328.317-.394.377-.39.255-.455-.188-.324-.193-.195-.187-.195.127h-.393l.133-.443h.26v-.255l.324-.252-.13-.188-.06-.442-.26-.06-.13-.126zm.196 3.353l.06.187-.07.127h-.192l-.195-.315h.39zm-.194 9.926l.328.316.26.316.26.442.324-.19.393-.252.456.126.192.316.327-.38.26.06-.26-.316-.194-.126v.07l-.52-.06-.457.19-.26-.506-.13-.125-.07.25-.52-.06-.393-.06zm.582-23.08v.062l.13.315-.13-.378zm.13 3.098l.06-.315-.13.25.07.064zm.13-.443h.13l-.134-.064v.065zm.78-5.377l-.06.062h-.07l.13-.123v.06zm-.07 5.123l-.06.064.13-.064h-.06zm.588.253l.324.314.132.253.06-.126.26-.253.197-.25-.327.062-.52-.125-.455-.13h-.07l.395.254zm.39.95l-.13.25-.26.25-.196.32.13.063.13-.063.196-.442h.392l.257-.063-.13-.19-.39-.124zm1.433 7.84l-.39.44-.326.383-.455-.315-.46-.07-.06-.44.06-.445.46-.252.454-.06.26.38.457.38zM27.722 4.493h-.13l.06-.318.07.315zm.586 1.266l-.39-.124-.132-.38.325-.317h.455l.13.384-.13.312-.258.126zm.852 17.328l-.132-.567.52-.13.324.317-.19.443-.522-.06zm.845-3.605l-.392.255-.457.128.06-.507.393-.127.39.25zm-.262-4.36l-.392.06-.13-.315.13-.504.327.378.07.38zm-.194 9.864l-.26-.316.392.06.452.06-.388.19zm.06-16.443h.52l-.13.443-.39.253-.197-.38.196-.315zm.26 1.71l.26.503-.39.128-.326-.06.13-.256.325-.315zm-.07-3.037l.07.19-.193.253-.197-.253.06-.253zm-.258 9.17l.52.126v.316l-.194.188-.193-.188zm.07 2.592l-.07-.632h.52l.198.316-.197.254-.455.06zm.454 2.91l-.52-.19.196-.314.26-.38.26.443-.196.442zm-.19-16.253h-.13l.13-.127zm1.24 12.71l-.263-.06.07-.19.262-.06.07.126.07.253-.194-.06zm-.06 11.765l-.07-.507v-.444l.324-.378.912.442-.06.442-.324.255-.328.313zm.716-3.732l.06.19-.06.315-.198-.253-.194-.316.39.07zm5.533 2.652l.324-.127.39.253-.128.316-.13.505-.65-.06-.132-.57zm2.468-22.767l-.457.128-.455-.127-.198-.443-.26-.442.195-.443.325-.317.392-.188h.13l-.195-.188-.39-.063-.263-.38.195-.378.39-.252.39-.064.523.19.06.505-.392.316-.126.316h.06l.326.188.13.063-.194-.312.194-.382.06-.378.26-.19.26-.442.262.126.13-.315.13-.507.453.25.328.383-.07.063.326-.126.454-.32.07.194.262.062-.196.126V2.85h-.06l.06.06.06.19.26.25.258.32v.187l.198.128v-.253l.258-.38h.523l.387-.38.39.316.197.126V3.29l.456-.318.52.19.326.252.326.19h.07l.26-.19h.455l.326.255.39.25v.126l.262.062v-.125l.195-.442.52.128.39.315-.324.317.26.124.07.444.193.38.193.442-.387.316-.326.316-.26.063.13.062.52-.062.195.188.07-.188.585-.063.198.508.128.443-.451.317-.26-.442-.132-.064v.19l-.13.378v.127l.195.187.26.382v.06l.52-.064.328.507-.26.44h.717V9.17l-.194-.507.52-.317.324.19V8.41l.393-.38.39-.252h.194v-.57l.453-.127.325-.19.262.255.13.063v-.38l-.257-.506.52-.252.325-.316-.13-.064-.26-.316.26-.378.262-.19.324-.256.454.063.325.255v.38l.262-.255.39-.188.13.063.06-.19-.06-.128.65-.316.196-.314h.07v-.063l.325-.252.263-.254.324.19.193.506-.388.126.13.062h.523l.32.316v.063h.07l.133-.38.26-.378.26-.316.458.063h.52l.197.315.06-.065.326-.25.39-.064h.457l.26.063.326-.38.52.188.453-.315.263.57.39.188v.19l.128-.064.326.317-.194.44h-.06l.13.126v.067h.06l.457-.252.193.507.327.253.06.127.06-.315.454-.127.394-.255.453.063v.824l-.07.505-.517.063-.52-.063-.198.19.197.313h.06l.456-.254.39.254.326.255.455.316-.26.443-.26.758.13.255-.13.443-.26.378h-.132l.26.19-.06.506-.326.317-.39.188-.324-.127-.196.128.06.568-.456.188h-.13l.326.315-.197.51-.06.313-.06.507-.52-.128-.327-.06-.584-.125-.06-.506.07-.444h-.196l-.195.06.06.06-.39.445-.455.252-.458-.188-.26-.38-.06-.508.455-.06v-.443l-.39-.316-.263.19-.324.127-.195-.316-.26-.44.52-.127.456.06v.123l.13-.25-.06-.127-.52-.07-.132-.438-.06-.063-.26-.065.127-.19-.06-.187.328-.38.193-.19-.06-.19-.06-.06h-.937l-.263-.441-.13-.318v.126l-.39.192-.39-.063-.196-.188-.453.187-.456-.188h-.13l-.06.06-.263.315-.39.19-.392.064-.452.126-.393-.19-.13-.19-.13.38h-.13l.194.19v.126l.327-.062.52-.13v.507l.196.507-.39.382-.522-.066-.13-.315-.26.442-.39.253h-.06l.26.38-.07.316-.26.253-.52.06-.13-.253-.457.44-.518-.06-.394-.06-.453.06-.06.06-.133.06.197.254-.132.19.457-.19.325-.38.39.315.26.384v.565l-.52.06-.455-.06-.39-.19-.07-.442-.07.127-.06.38-.06.188v.38l.328.443-.197.443-.52.127-.325.06H52.4v.06l-.327.252-.193.38.26.315.07.445-.263.44-.13.444-.39.188.193.253-.13.378-.13.318-.06.06h.06l.13.443v.38l-.195.316-.06.19.13-.06.195.507.13.377-.13.38v.252l.194.188.324.19.197.38v.128h.326l.196.192.194.315-.39.06h-.26l-.196-.128-.197.128.197.254.26.252h.13l.326.188-.13.318-.195.19v.315l-.587.06-.26.38.196.125.194.188.2-.06.32.127.587.125v.506l-.07.192.132.124.13-.127.26-.377-.06-.126.13-.444h.454l.456.06v.444h.393l.194.313.522-.06h.52l-.328-.38-.19-.187.52-.38.193.252.195.382-.39.313.456-.06.13.507.06.06.262-.254.39-.06.457-.06.26.38.26.316-.06.442.06-.06.328-.252.326.252.586.127-.193.506-.262.38.19.188.395.19.323.442-.453.38-.264.254-.13.313-.06.19-.13.254.13.506h-.264l-.323.38-.457.19-.26.19h-.39l.196.126.52.126-.39.315-.26.318-.39-.19v-.82l-.322-.12v.378l-.392.188v.128l-.455.252-.13-.316-.392.07h-.454l-.393-.382-.06.06h-.454l-.326-.317-.456-.188-.06-.06-.392-.13-.393.254-.453-.124-.326-.192-.516.518-.134.06.587.19-.258.44-.394.125-.39.255-.392-.253.07-.443v-.252h-.39l-.13-.128-.06.255h-.06l.13.252-.26.38-.326.19-.39-.128-.326-.315-.07.38-.388.06-.456.06-.197-.442.455-.125.26-.19.196.07-.06-.07.323-.126-.133-.06-.456-.06h-.386l-.52.06-.33-.254v.06l-.52-.06-.195.06v.07l-.13.125.325.126-.262.44-.39.13-.52.06.13-.502h-.07l-.393.25h-.06v.378l-.517-.127-.46.07-.127-.126-.327.252-.26.444-.912-.38-.195-.38v-.188h-.06l-.07.315-.194.38-.455-.06-.586.06-.132-.572.26-.378-.195-.06-.454-.126-.327-.316-.06.06h-.26l.39.126-.06.57-.913-.38.327-.316-.196-.506-.388-.253-.13-.442v-.315l-.197-.443-.39.19-.456-.314v-.508l-.26-.44.26-.445.324.06-.128-.128-.134-.504.457-.38.39.06.196-.317.39-.252.39.06h.393l.322.314.328.252-.07.06.195.128.132.126.26-.316.194-.254.327-.252.07-.06.128-.443.455-.192h.13l-.13-.313.392-.252.453.06v.44h.06l.392.256.262.44-.07.38.197-.252.39-.255.392-.06h.39l.195.128-.06-.317-.263-.316.06-.376.132-.317.07-.442.325-.38.455.19.39-.126h-.326l-.39-.382.39-.315.262-.255.39.126.325.444-.454.316-.13.06.194.252.325-.254.13-.125v-.315l-.194-.445.195-.188-.13-.254v-.504l.326-.317h-.07l-.06-.44-.393-.318-.13-.506.456-.253.325-.38.457-.19.26.255v-.188l-.06-.07-.392-.253-.39-.06-.133-.385-.07-.38.07-.313v-.06l-.07-.507-.52-.253.326-.442.06-.38.26-.443.263-.06-.263-.254-.13-.38-.06-.38.06-.125-.192-.19v-.442l-.13-.444.13-.507.39-.188h.07v-.247l-.263-.316-.06-.443.26-.316.07-.06-.134-.19-.194-.38-.13-.38-.07-.507.26-.25-.194-.32V8.73l-.223-.317v.063l-.33-.126-.13.38-.388.25-.196-.442.064-.188-.26-.382-.196-.188-.06.188-.39.255-.39.127-.52-.127-.132-.13-.196.257-.39.252-.456.127-.39-.317-.326-.253-.07-.315-.13.25-.324.192-.456.063-.454-.063-.198-.445-.26-.377-.26.19-.52.252v-.57l.194-.252.194-.19h.327l.06-.377-.06-.253h-.06zm-1.823 11.07v-.07l.06.06h-.07zm1.754-15.12l-.132-.06v.126l-.06-.13.13-.062.06.126zm-.06 22.453l-.133-.253.325-.317.262.38-.26.19zm1.82.06l-.26.44-.586.126-.326-.44.07-.442.39-.317.455.192.262.44zm-.912-19.793h-.07v.063zm.26 4.3v-.316l.196-.253.324.19-.132.44-.387-.06zm1.498 1.138l-.262-.06-.06-.19.13-.06.07-.127.13.13.194.124-.194.188zm-.13-1.454l.324-.063-.06.063.325.063-.26.063-.324-.125zm.2 13.724v-.127h.193l-.194.127zm.97-15.686l.264-.063-.07-.126-.263.19v.128l.06-.13zm.59 17.202l.455.06-.13.44-.39.06-.133-.315.197-.254zm.647-17.328l.13.126-.06-.315h-.06l-.196.187h.195zm0 14.86l.07-.186.13.06v.06l-.06.07h-.13zm1.365-9.295l-.13-.253v-.123l.07.06h.26l-.195.315zm-.06-4.172l.06.063V8.22h-.06zm.33 5.437l-.07.06-.07-.25.133.19zm.258 7.78h-.13l.06-.128.26-.06-.195.19zm1.04-5.882l.196.188-.07-.252zm.39.38h.13l-.324-.19zm2.083-6.2h.06l.132.253.128-.125.13-.38-.193-.062-.07.062-.196.253zm.656 14.04l-.06-.06-.06.13.13-.07zm.253-18.34l-.13-.126.132-.127.455-.188v.568l-.456-.127zm.39-.95l-.322.13.06-.255.258.125zm1.18 27.32h-.52l-.132-.44-.13-.507.52-.06.325.19.06.314-.126.505zm-.263-11.447l-.197-.06h.132zm.257-12.582h-.392l.133-.318.13.063.258-.063-.13.318zm.13 8.473l.135.382-.07.25-.195-.125-.327-.252.455-.254zm-.452 4.05v-.06l.13-.315-.06.38h-.07zm.26-5.44l.453.06.454.127-.13.378-.324.124h-.26l-.392-.192.197-.506zm.84-12.964l-.13-.063-.06-.253h.26l.06.125v.19h-.132zm.725 29.594l-.52.126-.13-.503.39-.19h.26l.324.126.2.44h-.523zm-.07-18.023l.06.252v.13l-.26.188.13-.32.06-.25zm0-7.397l.06-.063v.063l.07.062h-.13V6.07zm1.106 1.96l-.262-.252-.13.125.13.062.197.126.07-.06zm.717 2.403l-.06.06.194-.06.06-.06-.193.06zm.586 1.264l.13.254h-.26l-.196-.06.13-.19h.196zm.455 4.87l-.06.19-.194-.128v-.13l.194-.06.06.126zm.2 12.71l.197-.378h-.263zm.65-4.49l-.196.06-.06-.126-.13-.187.39.25zm.455 3.86h.13l-.07-.127zm.648-20.177v.255l-.13-.19zm.593 22.704l.39.128-.39.127-.196-.318.13-.253.07.314zm1.302-4.3l.454.19.26.315-.195.252-.26.254-.52-.06-.133-.57.394-.38zm.06-.38l-.06.06-.07-.06zm0-24.41l.134-.127.258.127h-.326l.07.062zm.27 27.888l.13-.188.127.126-.256.06zm.38-22.956v-.062l-.26.19-.07.062v.19l.327-.38zm-.255 22.767v-.06l.07.06zm1.492-27.32l.52.126-.194.505h-.393l-.456.063-.258-.442.392-.317.39.064zm.196 9.106l-.06.127-.13-.128h.194zm.976-9.234l.457-.126.39-.126.13.568-.456-.188-.52-.128zm1.37 9.36l-.07.188.26-.06.13-.127h-.321zm.516-9.424l-.13-.062.195-.19.26.253-.26.124zm16.428 4.305c0-.915-.353-1.277-1.143-1.277-.774 0-1.406.587-1.916 1.277v6.456h-2.25V3.9h1.95l.16 1.14c.79-.914 1.827-1.397 2.917-1.397 1.723 0 2.53 1.002 2.53 2.71v6.68h-2.248V6.578zm6.8 2.573c.177 1.726 1.038 2.467 2.285 2.467.79 0 1.46-.224 2.25-.846l.967 1.33c-.88.71-2.004 1.19-3.357 1.19-2.988 0-4.48-1.984-4.48-4.814 0-2.728 1.492-4.834 4.182-4.834 2.55 0 4.042 1.727 4.042 4.61 0 .292-.03.655-.05.896h-5.84zm-.017-1.434H92.5c-.02-1.57-.51-2.502-1.794-2.502-1.072 0-1.757.776-1.88 2.502zm13.654 4.886c-.63.467-1.53.69-2.32.69-2.074-.02-2.812-1.173-2.812-3.038v-4.78h-1.425V3.9h1.425V1.88l2.25-.258V3.9h2.262l-.24 1.57h-2.022v4.782c0 .898.297 1.26.982 1.26.37 0 .71-.103 1.11-.344zm3.67-1.295h4.57l-.23 1.727h-6.92v-1.588l4.5-5.817h-4.11V3.9h6.69v1.59zm16.52 1.726h-2.81l-1.44-6.957h-.1l-1.46 6.957h-2.74L112.08 3.9h2.27l1.24 7.338h.1l1.66-7.337h2.3l1.51 7.303h.1l1.34-7.302h2.16l-2.02 9.133zm5.15-3.883c.18 1.726 1.04 2.467 2.28 2.467.79 0 1.46-.224 2.25-.846l.97 1.33c-.88.71-2 1.19-3.36 1.19-2.98 0-4.48-1.984-4.48-4.814 0-2.728 1.5-4.834 4.19-4.834 2.54 0 4.04 1.727 4.04 4.61 0 .292 0 .655-.1.896h-5.84zm0-1.434h3.68c0-1.57-.51-2.502-1.79-2.502-1.08 0-1.76.776-1.89 2.502zm8.3 5.317V3.9h1.98l.21 1.728c.48-1.242 1.32-1.968 2.39-1.968.34 0 .64.035.94.12l-.39 2.142c-.28-.07-.51-.104-.83-.104-1.14 0-1.75 1.036-2.05 2.262v4.954h-2.25zm7.09 0V.243L145.44 0v13.033zm2.33-4.988l3.15-4.145h2.37l-3.13 4.023 3.4 5.11h-2.59zM70.777 31.337v-9.132h1.986l.21 1.727c.476-1.243 1.318-1.97 2.39-1.97.336 0 .634.04.933.122l-.387 2.14c-.28-.07-.51-.103-.826-.103-1.143 0-1.758 1.037-2.057 2.263v4.954h-2.25zm8.753-3.885c.176 1.727 1.036 2.47 2.284 2.47.79 0 1.458-.225 2.25-.847l.965 1.33c-.88.707-2.003 1.19-3.357 1.19-2.987 0-4.48-1.984-4.48-4.816 0-2.73 1.493-4.834 4.183-4.834 2.548 0 4.042 1.726 4.042 4.61 0 .292-.03.654-.05.895H79.53zm-.02-1.43h3.672c-.02-1.572-.51-2.504-1.792-2.504-1.074 0-1.758.776-1.88 2.503zm14.074 3.07l1.037 1.45c-.878.69-1.863 1.054-2.97 1.054-2.9 0-4.446-1.916-4.446-4.78 0-2.798 1.582-4.87 4.41-4.87 1.143 0 2.128.33 3.006 1.07l-1.02 1.348c-.685-.52-1.248-.674-1.88-.674-1.335 0-2.127.933-2.127 3.125 0 2.21.81 2.985 2.11 2.985.633 0 1.178-.19 1.88-.708zm3.041 2.245V18.563l2.25-.226v4.903c.756-.83 1.705-1.295 2.775-1.295 1.73 0 2.53 1 2.53 2.71v6.68h-2.25V24.88c0-.916-.35-1.277-1.14-1.277-.77 0-1.406.587-1.915 1.277v6.456h-2.25zm12.305-3.885c.17 1.727 1.03 2.47 2.28 2.47.79 0 1.46-.225 2.25-.847l.97 1.33c-.88.707-2.01 1.19-3.36 1.19-2.99 0-4.48-1.984-4.48-4.816 0-2.73 1.49-4.834 4.18-4.834 2.55 0 4.05 1.726 4.05 4.61 0 .292 0 .654-.1.895h-5.83zm0-1.43h3.68c0-1.572-.52-2.504-1.8-2.504-1.07 0-1.76.776-1.88 2.503zm8.3 5.315v-9.132h1.98l.21 1.727c.48-1.243 1.32-1.97 2.39-1.97.34 0 .63.04.93.122l-.38 2.14c-.28-.07-.51-.103-.83-.103-1.14 0-1.76 1.037-2.05 2.263v4.954h-2.25zm12.79-2.245l1.03 1.45c-.88.69-1.86 1.054-2.97 1.054-2.9 0-4.44-1.916-4.44-4.78 0-2.798 1.58-4.87 4.41-4.87 1.14 0 2.12.33 3 1.07l-1.02 1.348c-.68-.52-1.24-.674-1.88-.674-1.33 0-2.12.933-2.12 3.125 0 2.21.81 2.985 2.11 2.985.63 0 1.17-.19 1.88-.708zm3.04 2.245V18.563l2.25-.226v4.903c.75-.83 1.7-1.295 2.77-1.295 1.73 0 2.53 1 2.53 2.71v6.68h-2.25V24.88c0-.916-.35-1.277-1.14-1.277-.77 0-1.4.587-1.91 1.277v6.456h-2.25zm12.3-3.885c.18 1.727 1.03 2.47 2.28 2.47.79 0 1.46-.225 2.25-.847l.97 1.33c-.88.707-2 1.19-3.36 1.19-2.98 0-4.48-1.984-4.48-4.816 0-2.73 1.5-4.834 4.18-4.834 2.56 0 4.05 1.726 4.05 4.61v.895h-5.84zm0-1.43h3.67c0-1.572-.51-2.504-1.79-2.504-1.07 0-1.76.776-1.88 2.503z" id="path2" fill="#000"/></g></svg>