<svg viewBox="0 0 762.3 556.1" xmlns="http://www.w3.org/2000/svg"><path d="M431.9 51a51 51 0 01-51 51 51 51 0 01-51-51 51 51 0 0151-51 51 51 0 0151 51zm36.4 26c23.4 23.3 36.2 54.4 36.2 87.4 0 33-12.9 64.1-36.2 87.4-23.3 23.3-54.4 36.2-87.4 36.2-33 0-64.1-12.9-87.4-36.2-23.3-23.3-36.2-54.4-36.2-87.4 0-33 12.9-64.1 36.2-87.4 2-2 4.1-3.9 6.2-5.8L271.5 43c-2.1 1.9-4.1 3.8-6.1 5.8-15 15-26.8 32.5-35 52-8.5 20.2-12.9 41.6-12.9 63.6 0 22.1 4.3 43.5 12.9 63.6 8.2 19.5 20 37 35 52s32.5 26.8 52 35c20.2 8.5 41.6 12.9 63.6 12.9 22.1 0 43.5-4.3 63.6-12.9 19.5-8.2 37-20 52-35s26.8-32.5 35-52c8.5-20.2 12.9-41.6 12.9-63.6 0-22.1-4.3-43.5-12.9-63.6-8.2-19.5-20-37-35-52-2-2-4-3.9-6.1-5.8l-28.2 28.2c2 1.9 4 3.8 6 5.8zM366.7 264.1V138.3L316 87.6c-21.8 18.5-35.7 46-35.7 76.9 0 50.7 37.6 92.7 86.4 99.6zm28.4 0c48.8-6.9 86.4-48.9 86.4-99.6 0-30.8-13.9-58.4-35.7-76.9l-50.7 50.7zm315.7 258.6c3.7 3.3 5.5 7.9 5.5 13.8s-1.8 10.6-5.3 14c-3.6 3.4-9 5.2-16.3 5.2h-12.6v-38h13.1c6.7 0 12 1.7 15.6 5zm-.9 14c0-8.7-5-13.1-15-13.1h-6.4v26h7.1c4.6 0 8.1-1.1 10.6-3.3 2.4-2.1 3.7-5.3 3.7-9.6zm-69.6-19h6.4v38h-7L618.2 528v27.7h-6.4v-38h6.4l22.1 28.4zM552 547.1l-3.8 8.6h-6.9l16.7-38h6.9l16.7 38h-6.9l-3.8-8.6zm16.4-5.9l-6.9-15.7-6.9 15.7zm-77.5 14.5v-38h6.4v31.9h17.3v6.1zm-67.1 0v-38h6.4v16.5h18.9v-16.5h6.4v38h-6.4v-15.6h-18.9v15.6zm-47.5-5.8c2.2 0 4.1-.4 5.7-1.1 1.6-.7 3.3-1.9 5-3.6l4.1 4.2c-4 4.5-8.9 6.7-14.7 6.7-5.7 0-10.5-1.8-14.3-5.5-3.8-3.7-5.7-8.4-5.7-14s1.9-10.4 5.8-14.1c3.9-3.7 8.7-5.7 14.6-5.7s10.8 2.2 14.8 6.5l-4.1 4.5c-1.8-1.7-3.5-3-5.1-3.6-1.6-.6-3.5-1-5.7-1-3.8 0-7.1 1.2-9.7 3.7-2.6 2.5-3.9 5.7-3.9 9.5 0 3.9 1.3 7.1 3.9 9.7 2.7 2.5 5.8 3.8 9.3 3.8zm-64.9-27.2c-1.9 0-3.4.4-4.6 1.1-1.2.8-1.8 1.9-1.8 3.5 0 1.5.6 2.7 1.8 3.5 1.2.8 3.7 1.7 7.6 2.6 3.9.9 6.8 2.3 8.8 4 2 1.7 3 4.2 3 7.5s-1.3 6-3.8 8.1c-2.5 2.1-5.8 3.1-9.8 3.1-5.9 0-11.2-2-15.8-6.1l4-4.8c3.8 3.3 7.8 5 12 5 2.1 0 3.7-.4 4.9-1.3 1.2-.9 1.8-2.1 1.8-3.5 0-1.5-.6-2.6-1.7-3.4-1.1-.8-3.1-1.6-5.9-2.2-2.8-.7-4.9-1.3-6.4-1.8-1.5-.6-2.7-1.3-3.9-2.2-2.2-1.7-3.4-4.3-3.4-7.8s1.3-6.2 3.8-8.1c2.6-1.9 5.7-2.9 9.5-2.9 2.4 0 4.8.4 7.2 1.2 2.4.8 4.5 1.9 6.2 3.4l-3.4 4.8c-1.1-1-2.6-1.8-4.6-2.5-1.8-.8-3.7-1.2-5.5-1.2zm-54.9.9v32.1h-6.4v-32.1h-11.5v-5.9h29.5v5.9zM184.1 547c1.7 2 4.1 3 7.1 3s5.3-1 7.1-3c1.8-2 2.6-4.8 2.6-8.3v-21h6.4V539c0 5.5-1.5 9.7-4.5 12.6-3 3-6.9 4.4-11.6 4.4-4.7 0-8.6-1.5-11.6-4.4-3-3-4.5-7.2-4.5-12.6v-21.3h6.4v21c0 3.6.8 6.3 2.6 8.3zm-42.3-29.3v6h-20.3v10.1h18.2v5.7h-18.2v10.2h20.9v6H115v-38zm-65.3 5c3.7 3.3 5.5 7.9 5.5 13.8s-1.8 10.6-5.3 14c-3.6 3.4-9 5.2-16.3 5.2H47.8v-38h13.1c6.7 0 12 1.7 15.6 5zm-1 14c0-8.7-5-13.1-15-13.1h-6.3v26h7.1c4.6 0 8.1-1.1 10.6-3.3 2.4-2.1 3.6-5.3 3.6-9.6zm665.2-68l-8.5-19.7H694l-8.5 19.7h-21.7l39.4-91.2h19.7l39.4 91.2zm-27.6-64l-11.5 26.5h22.8zm-80.2-27.2h20.3v91.2h-20.4v-91.2zm-30.7 12c8.7 8 13.1 19 13.1 33.2 0 14.2-4.2 25.4-12.7 33.7-8.5 8.3-21.4 12.4-38.8 12.4h-31.2v-91.2h32.2c16.2-.1 28.7 3.9 37.4 11.9zm-15 54.2c5-4.7 7.5-11.5 7.5-20.5s-2.5-15.9-7.5-20.7c-5-4.8-12.7-7.2-23-7.2h-11.4v55.5h12.9c9.4-.1 16.5-2.4 21.5-7.1zm-74.3-66.2v18.1h-45.4v18.8h40.8v17.4h-40.8v18.9h46.9v18h-67.2v-91.2zm-108.6 33.8l-24.7 49.9h-12.1L343 411.3v57.4h-20.4v-91.2h27.6l23.5 50.1 23.6-50.1h27.4v91.2h-20.4zm-124.5-33.8h20.4v91.2h-20.4zm-92.6 0h20.4V415l34.5-37.5h25.1l-36.3 40.3c3.1 4.4 8.9 12.5 17.4 24.3 8.4 11.9 14.7 20.7 18.9 26.6h-23.8l-26.8-36-9.1 10.2v25.8h-20.3zm-42.8 0h20.4v91.2h-20.4zM39.8 430L56 377.5h21.3L93.4 430l18.1-52.5h22.1l-31.8 91.2H86.7l-20-63.4-19.8 63.4H31.8L0 377.5h22.1z"/></svg>